<svg version="1.1" id="Layer_1" xmlns="http://www.w3.org/2000/svg" xmlns:xlink="http://www.w3.org/1999/xlink" x="0px" y="0px"
	 width="100%" viewBox="0 0 190 55" enable-background="new 0 0 190 55" xml:space="preserve">
<path fill="#FEFCFC" opacity="1.000000" stroke="none" 
	d="
M141.000000,56.000000 
	C94.000008,56.000000 47.500023,56.000000 1.000025,56.000000 
	C1.000017,37.666683 1.000017,19.333364 1.000008,1.000035 
	C64.333305,1.000023 127.666603,1.000023 190.999939,1.000012 
	C190.999954,19.333300 190.999954,37.666599 190.999969,55.999947 
	C174.500000,56.000000 158.000000,56.000000 141.000000,56.000000 
M165.369675,20.898821 
	C157.662277,17.744896 153.834564,20.185654 153.781143,28.293091 
	C153.771271,29.789572 153.397781,31.424583 153.873505,32.751320 
	C154.645996,34.905655 155.562164,38.039028 157.179626,38.613388 
	C159.489227,39.433529 162.713562,38.845341 165.100159,37.819038 
	C166.416565,37.252941 166.967575,34.606094 167.496170,32.790314 
	C167.589722,32.468933 165.439529,30.915440 165.070694,31.142340 
	C163.737762,31.962366 162.745743,33.323727 161.572647,34.424919 
	C161.254913,34.723179 160.752579,34.824783 160.011688,35.165180 
	C160.011688,31.352583 160.011688,27.802658 160.011688,24.239429 
	C162.181534,25.854490 163.815186,27.070448 165.448837,28.286406 
	C165.989807,26.907400 166.530777,25.528393 167.899506,24.007011 
	C171.079056,23.736347 172.386734,25.096489 172.076248,28.349142 
	C171.841324,30.810221 171.759415,33.356518 172.148026,35.778469 
	C172.361160,37.106873 173.689987,38.256264 174.515762,39.486382 
	C175.412231,38.195126 176.857910,36.993355 177.086060,35.593197 
	C177.506668,33.011757 177.025238,30.294230 177.299789,27.673222 
	C177.425430,26.473831 178.358795,25.303585 179.097900,24.239649 
	C179.826218,23.191248 180.772018,22.293928 181.622406,21.330330 
	C180.407333,20.664324 179.136246,19.350212 177.987305,19.449493 
	C173.965637,19.797001 169.986130,20.632004 165.369675,20.898821 
M72.393768,22.434896 
	C70.804199,17.537697 66.732574,19.578283 63.652340,19.578096 
	C60.138851,19.577883 60.950413,22.648439 60.889423,24.839109 
	C60.811047,27.654289 60.569870,30.516365 60.966236,33.276764 
	C61.273167,35.414333 62.420250,39.184814 63.247803,39.199551 
	C67.504501,39.275356 65.547722,35.501770 66.132332,33.240456 
	C66.211960,32.932415 66.379990,32.647224 66.216347,33.028049 
	C68.064072,31.952291 69.392235,31.179031 70.720390,30.405766 
	C69.248070,28.727861 67.775742,27.049957 66.355659,25.431591 
	C68.458008,24.632633 70.671127,23.791582 73.042633,23.873009 
	C73.010803,26.862505 72.546829,29.933321 73.089050,32.814796 
	C73.495201,34.973179 74.834961,38.175323 76.404778,38.616840 
	C78.921432,39.324665 82.142776,38.563534 84.720306,37.546440 
	C85.872406,37.091824 86.394554,34.553078 86.736740,32.865696 
	C86.825798,32.426529 84.733307,30.917505 84.384506,31.128130 
	C83.040390,31.939808 82.019394,33.274090 80.826027,34.356308 
	C80.510971,34.642025 80.009750,34.722466 79.290260,35.024811 
	C79.290260,31.256113 79.290260,27.766699 79.290260,24.100485 
	C81.397324,25.912069 83.086823,27.364645 84.776321,28.817219 
	C85.381348,28.418167 85.986374,28.019115 86.591400,27.620064 
	C85.846802,25.322821 85.757828,21.945253 84.194763,20.996655 
	C82.154701,19.758572 78.915222,20.148046 76.256111,20.434391 
	C75.032112,20.566198 73.960945,22.117229 72.393768,22.434896 
M101.407097,22.505102 
	C99.021492,19.129459 95.740982,18.811245 92.166138,19.973499 
	C88.410004,21.194693 88.099319,24.329281 88.214149,27.630377 
	C88.254349,28.786171 88.262199,29.945312 88.226349,31.101114 
	C88.119209,34.554745 88.330254,37.844784 92.379013,39.121284 
	C96.289200,40.354092 99.531296,39.500759 102.405464,36.164772 
	C102.920738,36.441914 103.436012,36.719055 104.191444,37.638012 
	C105.399605,38.163113 106.580360,38.894218 107.836151,39.061249 
	C108.131729,39.100563 108.937004,37.267029 109.055634,36.242710 
	C109.260910,34.470345 109.112579,32.657028 109.112579,30.860891 
	C111.079041,33.139793 111.713737,35.628990 113.065117,37.635498 
	C113.793549,38.717045 115.787292,39.514004 117.138245,39.418808 
	C118.118187,39.349754 119.707436,37.648724 119.769966,36.600529 
	C120.056168,31.803263 120.022491,26.973612 119.787910,22.171017 
	C119.746376,21.320547 118.205444,20.543310 117.356903,19.732254 
	C116.567856,20.588629 115.287445,21.348070 115.095276,22.322189 
	C114.730736,24.170111 114.989761,26.141041 114.989761,28.060875 
	C113.393631,26.522913 112.959312,24.565742 111.897858,23.046841 
	C110.882072,21.593306 109.264336,19.743349 107.818085,19.658741 
	C106.597084,19.587311 105.242691,21.795744 103.252708,23.000500 
	C102.789146,23.006544 102.325592,23.012590 101.407097,22.505102 
M42.023930,24.252699 
	C40.867012,22.750208 39.989693,20.403198 38.498764,19.909597 
	C34.616566,18.624325 31.115135,19.638117 29.537914,24.165081 
	C25.425394,19.231127 20.292908,18.138927 16.931147,21.194838 
	C14.322782,23.565893 13.939018,35.025032 16.379961,37.653187 
	C19.245214,40.738194 24.730968,39.902840 29.218798,35.949219 
	C29.469011,35.967144 29.719227,35.985073 30.413509,36.543907 
	C33.470043,39.924618 38.222687,40.759224 40.678539,38.059589 
	C41.683632,36.954727 42.676243,34.944458 42.341496,33.706554 
	C41.704220,31.349911 40.108547,29.252436 38.962734,27.142920 
	C39.391190,26.919415 40.206650,26.494026 41.544731,25.938496 
	C41.651871,25.631620 41.759010,25.324745 42.023930,24.252699 
M133.803833,20.768707 
	C133.542969,23.002716 133.282104,25.236725 132.866058,28.799778 
	C131.499329,25.537905 130.932953,23.223343 129.634445,21.442667 
	C128.835449,20.346968 126.939270,19.654490 125.494408,19.579765 
	C124.665985,19.536921 123.039444,21.058556 122.998802,21.932882 
	C122.759857,27.073574 122.790939,32.234535 122.987686,37.378853 
	C123.014977,38.092384 124.460999,38.751652 125.250244,39.436039 
	C125.841385,38.615337 126.752800,37.865341 126.953018,36.958347 
	C127.305222,35.362865 127.222641,33.671410 127.322128,32.020145 
	C127.832169,31.946751 128.342209,31.873356 128.852249,31.799963 
	C129.598328,33.514210 130.006317,35.529503 131.187622,36.856220 
	C132.320602,38.128681 134.202469,39.149338 135.863541,39.340809 
	C136.568802,39.422100 138.196289,37.153252 138.288345,35.872265 
	C138.597366,31.572351 138.452759,27.235531 138.384689,22.914366 
	C138.340515,20.109175 137.123215,18.827780 133.803833,20.768707 
M48.865517,20.109577 
	C47.304588,20.109577 45.743664,20.109577 44.210751,20.109577 
	C44.098221,21.058466 43.991825,21.551956 43.988785,22.046082 
	C43.967251,25.542379 43.927513,29.039289 43.969952,32.535076 
	C44.021324,36.766888 46.870071,39.532478 51.130741,39.578262 
	C55.475300,39.624954 57.800579,37.378384 58.036945,32.869175 
	C58.089165,31.872850 58.301529,30.787481 58.003651,29.887606 
	C56.886616,26.513077 60.817287,20.126610 55.135445,20.107126 
	C49.951260,20.089348 53.461323,26.327015 52.534046,29.650150 
	C52.055084,31.366611 52.133183,33.238510 51.959587,35.040176 
	C51.455025,35.023193 50.950459,35.006210 50.445892,34.989223 
	C50.105118,30.228586 49.764347,25.467947 48.865517,20.109577 
M149.392395,24.186134 
	C150.365265,23.341589 151.338120,22.497044 152.310989,21.652494 
	C151.355194,20.902264 150.497864,19.714682 149.427399,19.473652 
	C143.060379,18.040020 140.905579,19.800934 140.892685,26.154160 
	C140.888321,28.307760 140.889252,30.461384 140.892395,32.614990 
	C140.902008,39.183647 143.331116,41.178928 149.650116,39.527687 
	C150.671677,39.260735 151.421661,37.954483 152.297180,37.128639 
	C151.415512,36.368195 150.623642,35.447521 149.628403,34.889725 
	C148.500732,34.257702 147.190781,33.950935 145.969986,33.506355 
	C147.998917,31.797503 149.389771,30.626057 150.780640,29.454611 
	C149.296921,28.245508 147.813202,27.036406 145.835449,25.424713 
	C146.857910,24.977327 147.741501,24.590712 149.392395,24.186134 
z"/>
<path fill="#203252" opacity="1.000000" stroke="none" 
	d="
M41.022114,26.068638 
	C40.206650,26.494026 39.391190,26.919415 38.962734,27.142920 
	C40.108547,29.252436 41.704220,31.349911 42.341496,33.706554 
	C42.676243,34.944458 41.683632,36.954727 40.678539,38.059589 
	C38.222687,40.759224 33.470043,39.924618 30.214701,35.883930 
	C31.380074,33.937668 32.744255,32.651379 34.649570,30.854853 
	C33.432938,30.010866 30.459044,26.912754 29.484369,27.448921 
	C25.001471,29.914968 23.646923,26.708052 21.181614,22.517094 
	C21.181614,27.808195 21.181614,31.390272 21.181614,34.496372 
	C23.429605,33.280125 25.382067,32.223770 27.334530,31.167414 
	C27.716043,32.715199 28.097555,34.262985 28.479069,35.810772 
	C24.730968,39.902840 19.245214,40.738194 16.379961,37.653187 
	C13.939018,35.025032 14.322782,23.565893 16.931147,21.194838 
	C20.292908,18.138927 25.425394,19.231127 29.537914,24.165081 
	C31.115135,19.638117 34.616566,18.624325 38.498764,19.909597 
	C39.989693,20.403198 40.867012,22.750208 41.747528,24.758968 
	C41.236042,25.485294 41.086372,25.753094 41.022114,26.068638 
M35.586838,26.517023 
	C35.586838,26.517023 35.477070,26.582243 35.586838,26.517023 
z"/>
<path fill="#EE8031" opacity="1.000000" stroke="none" 
	d="
M134.025848,20.470310 
	C137.123215,18.827780 138.340515,20.109175 138.384689,22.914366 
	C138.452759,27.235531 138.597366,31.572351 138.288345,35.872265 
	C138.196289,37.153252 136.568802,39.422100 135.863541,39.340809 
	C134.202469,39.149338 132.320602,38.128681 131.187622,36.856220 
	C130.006317,35.529503 129.598328,33.514210 128.852249,31.799963 
	C128.342209,31.873356 127.832169,31.946751 127.322128,32.020145 
	C127.222641,33.671410 127.305222,35.362865 126.953018,36.958347 
	C126.752800,37.865341 125.841385,38.615337 125.250244,39.436039 
	C124.460999,38.751652 123.014977,38.092384 122.987686,37.378853 
	C122.790939,32.234535 122.759857,27.073574 122.998802,21.932882 
	C123.039444,21.058556 124.665985,19.536921 125.494408,19.579765 
	C126.939270,19.654490 128.835449,20.346968 129.634445,21.442667 
	C130.932953,23.223343 131.499329,25.537905 132.866058,28.799778 
	C133.282104,25.236725 133.542969,23.002716 134.025848,20.470310 
z"/>
<path fill="#EE8335" opacity="1.000000" stroke="none" 
	d="
M103.947342,22.995096 
	C105.242691,21.795744 106.597084,19.587311 107.818085,19.658741 
	C109.264336,19.743349 110.882072,21.593306 111.897858,23.046841 
	C112.959312,24.565742 113.393631,26.522913 114.989761,28.060875 
	C114.989761,26.141041 114.730736,24.170111 115.095276,22.322189 
	C115.287445,21.348070 116.567856,20.588629 117.356903,19.732254 
	C118.205444,20.543310 119.746376,21.320547 119.787910,22.171017 
	C120.022491,26.973612 120.056168,31.803263 119.769966,36.600529 
	C119.707436,37.648724 118.118187,39.349754 117.138245,39.418808 
	C115.787292,39.514004 113.793549,38.717045 113.065117,37.635498 
	C111.713737,35.628990 111.079041,33.139793 109.112579,30.860891 
	C109.112579,32.657028 109.260910,34.470345 109.055634,36.242710 
	C108.937004,37.267029 108.131729,39.100563 107.836151,39.061249 
	C106.580360,38.894218 105.399605,38.163113 104.156250,36.859138 
	C104.063156,31.718542 104.005249,27.356819 103.947342,22.995096 
z"/>
<path fill="#EF863B" opacity="1.000000" stroke="none" 
	d="
M101.857971,35.952896 
	C99.531296,39.500759 96.289200,40.354092 92.379013,39.121284 
	C88.330254,37.844784 88.119209,34.554745 88.226349,31.101114 
	C88.262199,29.945312 88.254349,28.786171 88.214149,27.630377 
	C88.099319,24.329281 88.410004,21.194693 92.166138,19.973499 
	C95.740982,18.811245 99.021492,19.129459 101.642960,23.223463 
	C101.871872,27.945515 101.864922,31.949205 101.857971,35.952896 
z"/>
<path fill="#182A4B" opacity="1.000000" stroke="none" 
	d="
M49.144547,20.408443 
	C49.764347,25.467947 50.105118,30.228586 50.445892,34.989223 
	C50.950459,35.006210 51.455025,35.023193 51.959587,35.040176 
	C52.133183,33.238510 52.055084,31.366611 52.534046,29.650150 
	C53.461323,26.327015 49.951260,20.089348 55.135445,20.107126 
	C60.817287,20.126610 56.886616,26.513077 58.003651,29.887606 
	C58.301529,30.787481 58.089165,31.872850 58.036945,32.869175 
	C57.800579,37.378384 55.475300,39.624954 51.130741,39.578262 
	C46.870071,39.532478 44.021324,36.766888 43.969952,32.535076 
	C43.927513,29.039289 43.967251,25.542379 43.988785,22.046082 
	C43.991825,21.551956 44.098221,21.058466 44.210751,20.109577 
	C45.743664,20.109577 47.304588,20.109577 49.144547,20.408443 
z"/>
<path fill="#EE8133" opacity="1.000000" stroke="none" 
	d="
M72.820473,23.024723 
	C73.960945,22.117229 75.032112,20.566198 76.256111,20.434391 
	C78.915222,20.148046 82.154701,19.758572 84.194763,20.996655 
	C85.757828,21.945253 85.846802,25.322821 86.591400,27.620064 
	C85.986374,28.019115 85.381348,28.418167 84.776321,28.817219 
	C83.086823,27.364645 81.397324,25.912069 79.290260,24.100485 
	C79.290260,27.766699 79.290260,31.256113 79.290260,35.024811 
	C80.009750,34.722466 80.510971,34.642025 80.826027,34.356308 
	C82.019394,33.274090 83.040390,31.939808 84.384506,31.128130 
	C84.733307,30.917505 86.825798,32.426529 86.736740,32.865696 
	C86.394554,34.553078 85.872406,37.091824 84.720306,37.546440 
	C82.142776,38.563534 78.921432,39.324665 76.404778,38.616840 
	C74.834961,38.175323 73.495201,34.973179 73.089050,32.814796 
	C72.546829,29.933321 73.010803,26.862505 72.975876,23.454632 
	C72.909111,23.036253 72.820473,23.024723 72.820473,23.024723 
z"/>
<path fill="#EE7E2E" opacity="1.000000" stroke="none" 
	d="
M167.071747,24.149389 
	C166.530777,25.528393 165.989807,26.907400 165.448837,28.286406 
	C163.815186,27.070448 162.181534,25.854490 160.011688,24.239429 
	C160.011688,27.802658 160.011688,31.352583 160.011688,35.165180 
	C160.752579,34.824783 161.254913,34.723179 161.572647,34.424919 
	C162.745743,33.323727 163.737762,31.962366 165.070694,31.142340 
	C165.439529,30.915440 167.589722,32.468933 167.496170,32.790314 
	C166.967575,34.606094 166.416565,37.252941 165.100159,37.819038 
	C162.713562,38.845341 159.489227,39.433529 157.179626,38.613388 
	C155.562164,38.039028 154.645996,34.905655 153.873505,32.751320 
	C153.397781,31.424583 153.771271,29.789572 153.781143,28.293091 
	C153.834564,20.185654 157.662277,17.744896 165.719269,21.397011 
	C166.403152,22.646597 166.737442,23.397995 167.071747,24.149389 
z"/>
<path fill="#EE8133" opacity="1.000000" stroke="none" 
	d="
M149.008728,24.195114 
	C147.741501,24.590712 146.857910,24.977327 145.835449,25.424713 
	C147.813202,27.036406 149.296921,28.245508 150.780640,29.454609 
	C149.389771,30.626057 147.998917,31.797503 145.969986,33.506355 
	C147.190781,33.950935 148.500732,34.257702 149.628403,34.889725 
	C150.623642,35.447521 151.415512,36.368195 152.297180,37.128639 
	C151.421661,37.954483 150.671677,39.260735 149.650116,39.527687 
	C143.331116,41.178928 140.902008,39.183647 140.892395,32.614990 
	C140.889252,30.461384 140.888321,28.307760 140.892685,26.154160 
	C140.905579,19.800934 143.060379,18.040020 149.427399,19.473652 
	C150.497864,19.714682 151.355194,20.902264 152.310989,21.652496 
	C151.338120,22.497044 150.365265,23.341589 149.008728,24.195114 
z"/>
<path fill="#203252" opacity="1.000000" stroke="none" 
	d="
M72.896675,22.993393 
	C70.671127,23.791582 68.458008,24.632633 66.355659,25.431591 
	C67.775742,27.049957 69.248070,28.727861 70.720390,30.405767 
	C69.392235,31.179031 68.064072,31.952291 66.216347,33.028049 
	C66.379990,32.647224 66.211960,32.932415 66.132332,33.240456 
	C65.547722,35.501770 67.504501,39.275356 63.247803,39.199551 
	C62.420250,39.184814 61.273167,35.414333 60.966236,33.276764 
	C60.569870,30.516365 60.811047,27.654289 60.889423,24.839109 
	C60.950413,22.648439 60.138851,19.577883 63.652340,19.578096 
	C66.732574,19.578283 70.804199,17.537697 72.607117,22.729809 
	C72.820473,23.024723 72.909111,23.036253 72.896675,22.993393 
z"/>
<path fill="#EE8235" opacity="1.000000" stroke="none" 
	d="
M167.485626,24.078201 
	C166.737442,23.397995 166.403152,22.646597 166.029724,21.588524 
	C169.986130,20.632004 173.965637,19.797001 177.987305,19.449493 
	C179.136246,19.350212 180.407333,20.664324 181.622406,21.330330 
	C180.772018,22.293928 179.826218,23.191248 179.097900,24.239649 
	C178.358795,25.303585 177.425430,26.473831 177.299789,27.673222 
	C177.025238,30.294230 177.506668,33.011757 177.086060,35.593197 
	C176.857910,36.993355 175.412231,38.195126 174.515747,39.486382 
	C173.689987,38.256264 172.361160,37.106873 172.148026,35.778469 
	C171.759415,33.356518 171.841324,30.810221 172.076248,28.349142 
	C172.386734,25.096489 171.079056,23.736347 167.485626,24.078201 
z"/>
<path fill="#EEEFF2" opacity="1.000000" stroke="none" 
	d="
M28.848934,35.879997 
	C28.097555,34.262985 27.716043,32.715199 27.334530,31.167414 
	C25.382067,32.223770 23.429605,33.280125 21.181614,34.496372 
	C21.181614,31.390272 21.181614,27.808195 21.181614,22.517094 
	C23.646923,26.708052 25.001471,29.914968 29.484369,27.448921 
	C30.459044,26.912754 33.432938,30.010866 34.649570,30.854853 
	C32.744255,32.651379 31.380074,33.937668 29.992668,35.613480 
	C29.719227,35.985073 29.469011,35.967144 28.848934,35.879997 
z"/>
<path fill="#FEF4EE" opacity="1.000000" stroke="none" 
	d="
M102.131714,36.058834 
	C101.864922,31.949205 101.871872,27.945515 101.870422,23.480230 
	C102.325592,23.012590 102.789146,23.006544 103.600029,22.997799 
	C104.005249,27.356819 104.063156,31.718542 104.036179,36.538231 
	C103.436012,36.719055 102.920738,36.441914 102.131714,36.058834 
z"/>
<path fill="#1D2F50" opacity="1.000000" stroke="none" 
	d="
M41.283424,26.003567 
	C41.086372,25.753094 41.236042,25.485294 41.668640,25.141552 
	C41.759010,25.324745 41.651871,25.631620 41.283424,26.003567 
z"/>
<path fill="#1D2F50" opacity="1.000000" stroke="none" 
	d="
M35.531952,26.549633 
	C35.477070,26.582243 35.586838,26.517023 35.531952,26.549633 
z"/>
</svg>