<svg version="1.1" id="Layer_1" xmlns="http://www.w3.org/2000/svg" xmlns:xlink="http://www.w3.org/1999/xlink" x="0px" y="0px"
	 width="100%" viewBox="0 0 195 90" enable-background="new 0 0 195 90" xml:space="preserve">
<path fill="#FDFBFA" opacity="1.000000" stroke="none" 
	d="
M133.000000,91.000000 
	C88.666672,91.000000 44.833344,91.000000 1.000012,91.000000 
	C1.000008,61.000008 1.000008,31.000017 1.000004,1.000020 
	C65.999985,1.000013 130.999969,1.000013 195.999969,1.000007 
	C195.999969,30.999979 195.999969,60.999958 195.999985,90.999969 
	C175.166672,91.000000 154.333328,91.000000 133.000000,91.000000 
M170.911575,19.002913 
	C174.064850,18.712233 175.390640,19.991211 175.089828,23.282955 
	C174.834930,26.072086 174.814636,28.942095 175.213287,31.700771 
	C175.362183,32.731201 176.990601,33.547829 177.944412,34.461948 
	C178.683212,33.527805 179.958481,32.648090 180.059830,31.649275 
	C180.359192,28.698486 179.974457,25.675220 180.314087,22.733028 
	C180.460068,21.468447 181.702347,20.313274 182.502441,19.146725 
	C183.153763,18.197088 183.888306,17.304544 184.585938,16.386681 
	C183.547363,15.715474 182.450775,14.397943 181.480255,14.485038 
	C177.296799,14.860461 173.150330,15.647743 168.283295,15.849633 
	C160.454971,12.923569 156.829056,15.315512 156.785278,23.439203 
	C156.777222,24.933241 156.347412,26.616859 156.889236,27.879581 
	C157.834930,30.083525 159.055923,33.344749 160.758575,33.769485 
	C163.233536,34.386871 166.397003,33.236946 168.938522,32.104031 
	C169.949432,31.653402 170.333817,29.256992 170.467743,27.700323 
	C170.509277,27.217691 168.434464,25.899096 167.940750,26.153109 
	C166.709595,26.786505 165.851501,28.125761 164.798813,29.134876 
	C164.383743,29.532761 163.849457,29.806271 163.013565,30.381205 
	C163.013565,26.314369 163.013565,22.761032 163.013565,19.241821 
	C165.187088,20.855783 166.819183,22.067711 168.451263,23.279633 
	C168.990997,21.901960 169.530731,20.524286 170.911575,19.002913 
M75.389442,17.430458 
	C73.789215,12.552145 69.725090,14.579329 66.645493,14.583030 
	C63.132877,14.587250 63.955811,17.660894 63.893436,19.847385 
	C63.813171,22.660856 63.573177,25.521505 63.969883,28.280169 
	C64.276955,30.415522 65.429268,34.183224 66.252785,34.195988 
	C70.504349,34.261879 68.541893,30.492121 69.129662,28.232899 
	C69.209732,27.925133 69.378960,27.640560 69.209648,28.031336 
	C71.064873,26.949245 72.391617,26.175402 73.718361,25.401560 
	C72.244919,23.725241 70.771484,22.048922 69.344582,20.425545 
	C71.451256,19.628475 73.664932,18.790918 76.044777,18.874233 
	C76.013634,21.860424 75.552322,24.927334 76.092545,27.806311 
	C76.497536,29.964628 77.828674,33.171043 79.394012,33.611126 
	C81.912682,34.319229 85.134064,33.560310 87.714424,32.545864 
	C88.865288,32.093410 89.389389,29.556929 89.732140,27.871561 
	C89.821579,27.431789 87.732727,25.922112 87.386238,26.131500 
	C86.043404,26.942999 85.022057,28.274240 83.830002,29.355736 
	C83.514984,29.641531 83.017250,29.725922 82.272232,30.044342 
	C82.272232,26.261337 82.272232,22.771111 82.272232,19.085501 
	C84.375923,20.904345 86.063065,22.363050 87.750214,23.821756 
	C88.363632,23.433630 88.977043,23.045504 89.590454,22.657377 
	C88.842781,20.353813 88.753006,16.975000 87.183464,16.014671 
	C85.151237,14.771244 81.907410,15.161121 79.248543,15.443689 
	C78.026688,15.573541 76.955559,17.121733 75.389442,17.430458 
M105.545540,30.991486 
	C106.012573,30.995829 106.479599,31.000172 107.105217,31.701492 
	C108.212883,32.592552 109.320541,33.483608 110.428200,34.374672 
	C111.252083,31.602518 112.075966,28.830362 112.998367,25.726736 
	C113.909424,27.891716 114.515373,30.320150 115.874573,32.205574 
	C116.745422,33.413582 118.695213,34.292240 120.224335,34.396774 
	C121.045616,34.452915 122.710152,32.604328 122.772240,31.543682 
	C123.052437,26.757296 123.018219,21.939299 122.781479,17.148300 
	C122.739929,16.307337 121.189186,15.540946 120.335426,14.740112 
	C119.554703,15.600706 118.288994,16.366196 118.097572,17.342350 
	C117.736290,19.184708 117.993248,21.148304 117.993248,23.061512 
	C116.389244,21.524994 115.987312,19.532156 114.875320,18.084881 
	C113.723701,16.586035 111.883492,15.616264 110.344467,14.415074 
	C109.212151,15.941877 108.079834,17.468681 106.328674,18.996162 
	C105.916107,18.994797 105.503540,18.993431 104.785309,18.355200 
	C102.813377,14.331439 99.448593,13.856217 95.597313,14.847550 
	C91.786972,15.828347 91.121498,18.785419 91.207550,22.160452 
	C91.241150,23.478453 91.268333,24.798758 91.230095,26.116030 
	C91.130112,29.560345 91.340118,32.840717 95.374352,34.115765 
	C99.270027,35.347015 102.506897,34.499557 105.545540,30.991486 
M32.217995,30.949001 
	C32.469311,30.966883 32.720623,30.984762 33.416927,31.542233 
	C36.470474,34.919769 41.227547,35.753468 43.678612,33.054459 
	C44.682819,31.948658 45.675415,29.938631 45.339916,28.701559 
	C44.700966,26.345573 43.103699,24.249483 41.956852,22.142002 
	C42.390564,21.916058 43.205967,21.491270 44.542858,20.936680 
	C44.650032,20.630505 44.757206,20.324329 45.021362,19.253622 
	C43.847992,17.748987 42.958702,15.423146 41.445869,14.899811 
	C37.529255,13.544930 34.165234,14.908484 32.442184,19.167416 
	C28.496197,14.292396 23.575497,13.166662 20.128050,16.028906 
	C17.182587,18.474379 16.857224,30.291601 19.663479,32.902172 
	C22.672335,35.701206 27.812424,34.792992 32.217995,30.949001 
M13.617657,65.493881 
	C13.617657,69.907654 13.617657,74.321426 13.617657,78.819138 
	C39.971733,78.819138 65.551041,78.819138 91.686478,78.819138 
	C91.686478,76.960335 91.658363,75.339607 91.694450,73.720299 
	C91.729942,72.127930 91.830582,70.537025 91.892685,69.165176 
	C95.320190,68.917374 98.186852,69.014008 100.917099,68.450127 
	C106.790634,67.237061 110.252029,63.747353 110.257072,59.557690 
	C110.262138,55.340839 106.800522,51.890701 100.904663,50.719521 
	C98.046288,50.151711 95.070496,50.174900 91.909271,49.910576 
	C91.757721,46.692539 91.611832,43.594959 91.456932,40.305847 
	C65.446144,40.305847 39.731842,40.305847 13.617258,40.305847 
	C13.617258,48.563160 13.617258,56.529812 13.617657,65.493881 
M188.455078,44.534645 
	C188.390259,43.113335 188.325439,41.692028 188.263992,40.344345 
	C162.089279,40.344345 136.360321,40.344345 110.506943,40.344345 
	C110.506943,43.641861 110.506943,46.600128 110.506943,49.710339 
	C116.488731,51.198982 124.014091,51.668507 123.832481,59.794552 
	C123.660316,67.498138 116.396843,68.000786 110.642303,69.401443 
	C110.642303,72.588219 110.642303,75.678467 110.642303,78.781189 
	C136.701004,78.781189 162.461823,78.781189 188.455246,78.781189 
	C188.455246,67.506653 188.455246,56.519741 188.455078,44.534645 
M137.010437,34.563831 
	C138.415283,33.597012 140.931259,32.734207 141.033188,31.645412 
	C141.481155,26.860056 141.324097,22.005985 141.145294,17.185766 
	C141.115051,16.370230 139.730133,14.852175 139.271957,14.958238 
	C138.242111,15.196629 136.887360,16.087542 136.594757,17.008339 
	C136.056000,18.703726 136.186813,20.611881 136.038589,22.431368 
	C134.427750,20.497917 133.947617,18.307056 132.741898,16.641443 
	C131.933578,15.524825 130.134811,14.737489 128.704651,14.604445 
	C127.849510,14.524896 126.082924,15.952929 126.041245,16.770369 
	C125.778908,21.915480 125.794769,27.082506 125.970604,32.233688 
	C125.996246,32.984734 127.367752,33.689835 128.116486,34.416191 
	C128.750610,33.642963 129.743774,32.951019 129.941223,32.078930 
	C130.308105,30.458448 130.210861,28.732901 130.306854,27.051094 
	C130.651932,27.011564 130.997009,26.972033 131.342087,26.932503 
	C132.986176,29.407877 134.630264,31.883251 137.010437,34.563831 
M56.703732,34.213165 
	C58.149582,32.059864 60.176910,30.078878 60.880241,27.705534 
	C61.605778,25.257261 61.355274,22.376740 60.936268,19.781479 
	C60.646465,17.986502 59.516632,15.026611 58.465996,14.891572 
	C54.886337,14.431479 55.584026,17.627466 55.516666,19.812117 
	C55.412350,23.195528 55.489147,26.584522 55.489147,29.971149 
	C54.653824,29.961012 53.818497,29.950872 52.983173,29.940735 
	C52.983173,26.442652 52.862240,22.939335 53.013290,19.447786 
	C53.209110,14.921422 51.345329,13.658068 47.256020,15.419080 
	C47.173508,15.755084 47.031147,16.071253 47.027882,16.388853 
	C46.995399,19.550707 46.977882,22.712780 46.971512,25.874823 
	C46.957844,32.657322 48.921421,34.516006 56.703732,34.213165 
M143.895905,22.599789 
	C143.899109,25.262762 143.584778,27.980530 144.031128,30.567034 
	C144.277390,31.994137 145.711105,34.214809 146.765198,34.307510 
	C149.403717,34.539558 152.131042,33.761990 154.822739,33.389462 
	C154.166077,32.218128 153.755447,30.740248 152.784271,29.960808 
	C151.793533,29.165667 150.251968,29.056866 148.773911,28.591654 
	C150.887405,26.893581 152.316406,25.745464 153.745407,24.597347 
	C152.232635,23.246847 150.719879,21.896347 148.770508,20.156071 
	C150.055817,19.774565 151.128845,19.631027 152.017685,19.148319 
	C153.149567,18.533611 154.132385,17.644434 155.179474,16.873579 
	C154.125641,16.046333 153.171494,14.703735 152.001434,14.477431 
	C145.538834,13.227484 143.925156,14.747483 143.895905,22.599789 
z"/>
<path fill="#ED7925" opacity="1.000000" stroke="none" 
	d="
M13.617457,64.995171 
	C13.617258,56.529812 13.617258,48.563160 13.617258,40.305847 
	C39.731842,40.305847 65.446144,40.305847 91.456932,40.305847 
	C91.611832,43.594959 91.757721,46.692539 91.909271,49.910576 
	C95.070496,50.174900 98.046288,50.151711 100.904663,50.719521 
	C106.800522,51.890701 110.262138,55.340839 110.257072,59.557690 
	C110.252029,63.747353 106.790634,67.237061 100.917099,68.450127 
	C98.186852,69.014008 95.320190,68.917374 91.892685,69.165176 
	C91.830582,70.537025 91.729942,72.127930 91.694450,73.720299 
	C91.658363,75.339607 91.686478,76.960335 91.686478,78.819138 
	C65.551041,78.819138 39.971733,78.819138 13.617657,78.819138 
	C13.617657,74.321426 13.617657,69.907654 13.617457,64.995171 
z"/>
<path fill="#0E2144" opacity="1.000000" stroke="none" 
	d="
M188.455170,45.033737 
	C188.455246,56.519741 188.455246,67.506653 188.455246,78.781189 
	C162.461823,78.781189 136.701004,78.781189 110.642303,78.781189 
	C110.642303,75.678467 110.642303,72.588219 110.642303,69.401443 
	C116.396843,68.000786 123.660316,67.498138 123.832481,59.794552 
	C124.014091,51.668507 116.488731,51.198982 110.506943,49.710339 
	C110.506943,46.600128 110.506943,43.641861 110.506943,40.344345 
	C136.360321,40.344345 162.089279,40.344345 188.263992,40.344345 
	C188.325439,41.692028 188.390259,43.113335 188.455170,45.033737 
z"/>
<path fill="#203252" opacity="1.000000" stroke="none" 
	d="
M44.021366,21.066483 
	C43.205967,21.491270 42.390564,21.916058 41.956852,22.142002 
	C43.103699,24.249483 44.700966,26.345573 45.339916,28.701559 
	C45.675415,29.938631 44.682819,31.948658 43.678612,33.054459 
	C41.227547,35.753468 36.470474,34.919769 33.216213,30.882811 
	C34.380650,28.936792 35.745800,27.650196 37.650539,25.855055 
	C36.432373,25.010233 33.455135,21.911928 32.483128,22.448195 
	C27.997555,24.922930 26.649309,21.695816 24.183548,17.535921 
	C24.183548,22.809174 24.183548,26.391478 24.183548,29.487053 
	C26.432140,28.275372 28.386019,27.222500 30.339897,26.169628 
	C30.717953,27.718195 31.096008,29.266760 31.474062,30.815327 
	C27.812424,34.792992 22.672335,35.701206 19.663479,32.902172 
	C16.857224,30.291601 17.182587,18.474379 20.128050,16.028906 
	C23.575497,13.166662 28.496197,14.292396 32.442184,19.167416 
	C34.165234,14.908484 37.529255,13.544930 41.445869,14.899811 
	C42.958702,15.423146 43.847992,17.748987 44.746170,19.759747 
	C44.236820,20.485397 44.086948,20.752268 44.021366,21.066483 
M38.585457,21.516830 
	C38.585457,21.516830 38.477200,21.580805 38.585457,21.516830 
z"/>
<path fill="#EE8335" opacity="1.000000" stroke="none" 
	d="
M106.947510,18.995483 
	C108.079834,17.468681 109.212151,15.941877 110.344467,14.415077 
	C111.883492,15.616264 113.723701,16.586035 114.875320,18.084881 
	C115.987312,19.532156 116.389244,21.524994 117.993248,23.061512 
	C117.993248,21.148304 117.736290,19.184708 118.097572,17.342350 
	C118.288994,16.366196 119.554703,15.600706 120.335426,14.740114 
	C121.189186,15.540946 122.739929,16.307337 122.781479,17.148300 
	C123.018219,21.939299 123.052437,26.757296 122.772240,31.543682 
	C122.710152,32.604328 121.045616,34.452915 120.224335,34.396774 
	C118.695213,34.292240 116.745422,33.413582 115.874573,32.205574 
	C114.515373,30.320150 113.909424,27.891716 112.998367,25.726736 
	C112.075966,28.830362 111.252083,31.602518 110.428200,34.374672 
	C109.320541,33.483608 108.212883,32.592552 107.111740,30.898472 
	C107.061340,26.395462 107.004425,22.695475 106.947510,18.995483 
z"/>
<path fill="#EF863B" opacity="1.000000" stroke="none" 
	d="
M104.844376,30.980434 
	C102.506897,34.499557 99.270027,35.347015 95.374352,34.115765 
	C91.340118,32.840717 91.130112,29.560345 91.230095,26.116030 
	C91.268333,24.798758 91.241150,23.478453 91.207550,22.160452 
	C91.121498,18.785419 91.786972,15.828347 95.597313,14.847550 
	C99.448593,13.856217 102.813377,14.331439 104.886459,19.132267 
	C104.939873,23.599699 104.892120,27.290068 104.844376,30.980434 
z"/>
<path fill="#EE8031" opacity="1.000000" stroke="none" 
	d="
M136.642395,34.461227 
	C134.630264,31.883251 132.986176,29.407877 131.342087,26.932503 
	C130.997009,26.972033 130.651932,27.011564 130.306854,27.051094 
	C130.210861,28.732901 130.308105,30.458448 129.941223,32.078930 
	C129.743774,32.951019 128.750610,33.642963 128.116486,34.416191 
	C127.367752,33.689835 125.996246,32.984734 125.970604,32.233688 
	C125.794769,27.082506 125.778908,21.915480 126.041245,16.770369 
	C126.082924,15.952929 127.849510,14.524896 128.704651,14.604445 
	C130.134811,14.737489 131.933578,15.524825 132.741898,16.641443 
	C133.947617,18.307056 134.427750,20.497917 136.038589,22.431368 
	C136.186813,20.611881 136.056000,18.703726 136.594757,17.008339 
	C136.887360,16.087542 138.242111,15.196629 139.271957,14.958238 
	C139.730133,14.852175 141.115051,16.370230 141.145294,17.185766 
	C141.324097,22.005985 141.481155,26.860056 141.033188,31.645412 
	C140.931259,32.734207 138.415283,33.597012 136.642395,34.461227 
z"/>
<path fill="#182A4B" opacity="1.000000" stroke="none" 
	d="
M56.327896,34.303238 
	C48.921421,34.516006 46.957844,32.657322 46.971512,25.874823 
	C46.977882,22.712780 46.995399,19.550707 47.027882,16.388853 
	C47.031147,16.071253 47.173508,15.755084 47.256020,15.419080 
	C51.345329,13.658068 53.209110,14.921422 53.013290,19.447786 
	C52.862240,22.939335 52.983173,26.442652 52.983173,29.940735 
	C53.818497,29.950872 54.653824,29.961012 55.489147,29.971149 
	C55.489147,26.584522 55.412350,23.195528 55.516666,19.812117 
	C55.584026,17.627466 54.886337,14.431479 58.465996,14.891572 
	C59.516632,15.026611 60.646465,17.986502 60.936268,19.781479 
	C61.355274,22.376740 61.605778,25.257261 60.880241,27.705534 
	C60.176910,30.078878 58.149582,32.059864 56.327896,34.303238 
z"/>
<path fill="#EE8133" opacity="1.000000" stroke="none" 
	d="
M75.816086,18.026756 
	C76.955559,17.121733 78.026688,15.573541 79.248543,15.443689 
	C81.907410,15.161121 85.151237,14.771244 87.183464,16.014671 
	C88.753006,16.975000 88.842781,20.353813 89.590454,22.657377 
	C88.977043,23.045504 88.363632,23.433630 87.750214,23.821756 
	C86.063065,22.363050 84.375923,20.904345 82.272232,19.085501 
	C82.272232,22.771111 82.272232,26.261337 82.272232,30.044342 
	C83.017250,29.725922 83.514984,29.641531 83.830002,29.355736 
	C85.022057,28.274240 86.043404,26.942999 87.386238,26.131500 
	C87.732727,25.922112 89.821579,27.431789 89.732140,27.871561 
	C89.389389,29.556929 88.865288,32.093410 87.714424,32.545864 
	C85.134064,33.560310 81.912682,34.319229 79.394012,33.611126 
	C77.828674,33.171043 76.497536,29.964628 76.092545,27.806311 
	C75.552322,24.927334 76.013634,21.860424 75.974899,18.456577 
	C75.905029,18.038923 75.816086,18.026756 75.816086,18.026756 
z"/>
<path fill="#EE7E2E" opacity="1.000000" stroke="none" 
	d="
M170.070465,19.146614 
	C169.530731,20.524286 168.990997,21.901960 168.451263,23.279636 
	C166.819183,22.067711 165.187088,20.855783 163.013565,19.241821 
	C163.013565,22.761032 163.013565,26.314369 163.013565,30.381205 
	C163.849457,29.806271 164.383743,29.532761 164.798813,29.134876 
	C165.851501,28.125761 166.709595,26.786505 167.940750,26.153109 
	C168.434464,25.899096 170.509277,27.217691 170.467743,27.700323 
	C170.333817,29.256992 169.949432,31.653402 168.938522,32.104031 
	C166.397003,33.236946 163.233536,34.386871 160.758575,33.769485 
	C159.055923,33.344749 157.834930,30.083525 156.889236,27.879581 
	C156.347412,26.616859 156.777222,24.933241 156.785278,23.439203 
	C156.829056,15.315512 160.454971,12.923569 168.676346,16.373335 
	C169.403091,17.646898 169.736786,18.396757 170.070465,19.146614 
z"/>
<path fill="#EE8133" opacity="1.000000" stroke="none" 
	d="
M143.895950,22.126844 
	C143.925156,14.747483 145.538834,13.227484 152.001434,14.477431 
	C153.171494,14.703735 154.125641,16.046333 155.179474,16.873579 
	C154.132385,17.644434 153.149567,18.533611 152.017685,19.148319 
	C151.128845,19.631027 150.055817,19.774565 148.770508,20.156071 
	C150.719879,21.896347 152.232635,23.246847 153.745407,24.597347 
	C152.316406,25.745464 150.887405,26.893581 148.773911,28.591654 
	C150.251968,29.056866 151.793533,29.165667 152.784271,29.960808 
	C153.755447,30.740248 154.166077,32.218128 154.822739,33.389462 
	C152.131042,33.761990 149.403717,34.539558 146.765198,34.307510 
	C145.711105,34.214809 144.277390,31.994137 144.031128,30.567034 
	C143.584778,27.980530 143.899109,25.262762 143.895950,22.126844 
z"/>
<path fill="#203252" opacity="1.000000" stroke="none" 
	d="
M75.891815,17.996141 
	C73.664932,18.790918 71.451256,19.628475 69.344582,20.425545 
	C70.771484,22.048922 72.244919,23.725241 73.718361,25.401558 
	C72.391617,26.175402 71.064873,26.949245 69.209648,28.031336 
	C69.378960,27.640560 69.209732,27.925133 69.129662,28.232899 
	C68.541893,30.492121 70.504349,34.261879 66.252785,34.195988 
	C65.429268,34.183224 64.276955,30.415522 63.969883,28.280169 
	C63.573177,25.521505 63.813171,22.660856 63.893436,19.847385 
	C63.955811,17.660894 63.132877,14.587250 66.645493,14.583030 
	C69.725090,14.579329 73.789215,12.552145 75.602768,17.728607 
	C75.816086,18.026756 75.905029,18.038923 75.891815,17.996141 
z"/>
<path fill="#EE8235" opacity="1.000000" stroke="none" 
	d="
M170.491028,19.074764 
	C169.736786,18.396757 169.403091,17.646898 169.029892,16.591061 
	C173.150330,15.647743 177.296799,14.860461 181.480255,14.485038 
	C182.450775,14.397943 183.547363,15.715474 184.585938,16.386681 
	C183.888306,17.304544 183.153763,18.197088 182.502441,19.146725 
	C181.702347,20.313274 180.460068,21.468447 180.314087,22.733028 
	C179.974457,25.675220 180.359192,28.698486 180.059830,31.649275 
	C179.958481,32.648090 178.683212,33.527805 177.944412,34.461945 
	C176.990601,33.547829 175.362183,32.731201 175.213287,31.700771 
	C174.814636,28.942095 174.834930,26.072086 175.089828,23.282955 
	C175.390640,19.991211 174.064850,18.712233 170.491028,19.074764 
z"/>
<path fill="#EEEFF2" opacity="1.000000" stroke="none" 
	d="
M31.846027,30.882164 
	C31.096008,29.266760 30.717953,27.718195 30.339897,26.169628 
	C28.386019,27.222500 26.432140,28.275372 24.183548,29.487053 
	C24.183548,26.391478 24.183548,22.809174 24.183548,17.535921 
	C26.649309,21.695816 27.997555,24.922930 32.483128,22.448195 
	C33.455135,21.911928 36.432373,25.010233 37.650539,25.855055 
	C35.745800,27.650196 34.380650,28.936792 32.993717,30.613014 
	C32.720623,30.984762 32.469311,30.966883 31.846027,30.882164 
z"/>
<path fill="#FEF4EE" opacity="1.000000" stroke="none" 
	d="
M105.194962,30.985960 
	C104.892120,27.290068 104.939873,23.599699 105.039291,19.450699 
	C105.503540,18.993431 105.916107,18.994797 106.638092,18.995823 
	C107.004425,22.695475 107.061340,26.395462 107.032440,30.549984 
	C106.479599,31.000172 106.012573,30.995829 105.194962,30.985960 
z"/>
<path fill="#1D2F50" opacity="1.000000" stroke="none" 
	d="
M44.282112,21.001581 
	C44.086948,20.752268 44.236820,20.485397 44.667679,20.142012 
	C44.757206,20.324329 44.650032,20.630505 44.282112,21.001581 
z"/>
<path fill="#1D2F50" opacity="1.000000" stroke="none" 
	d="
M38.531326,21.548817 
	C38.477200,21.580805 38.585457,21.516830 38.531326,21.548817 
z"/>
</svg>