<svg version="1.1" id="Layer_1" xmlns="http://www.w3.org/2000/svg" xmlns:xlink="http://www.w3.org/1999/xlink" x="0px" y="0px"
	 width="100%" viewBox="0 0 193 91" enable-background="new 0 0 193 91" xml:space="preserve">
<path fill="#FDFCFB" opacity="1.000000" stroke="none" 
	d="
M139.000000,92.000000 
	C92.666672,92.000000 46.833344,92.000000 1.000012,92.000000 
	C1.000008,61.666676 1.000008,31.333351 1.000004,1.000021 
	C65.333321,1.000014 129.666641,1.000014 193.999969,1.000007 
	C193.999969,31.333313 193.999969,61.666626 193.999985,91.999969 
	C175.833328,92.000000 157.666672,92.000000 139.000000,92.000000 
M170.912216,17.005760 
	C174.078140,16.711592 175.385880,18.010250 175.086212,21.297035 
	C174.831619,24.089558 174.810593,26.963209 175.211807,29.724602 
	C175.360703,30.749487 177.004608,31.557163 177.966721,32.463898 
	C178.699707,31.522327 179.964294,30.634277 180.065506,29.629097 
	C180.362991,26.674387 179.975510,23.647074 180.319946,20.702431 
	C180.467056,19.444839 181.740677,18.305672 182.545517,17.142523 
	C183.206268,16.187609 183.930847,15.276843 184.627136,14.346513 
	C183.579651,13.687384 182.474640,12.391189 181.494659,12.479674 
	C177.306503,12.857841 173.155258,13.644686 168.369415,13.899834 
	C160.663940,10.745648 156.835251,13.186990 156.781906,21.293358 
	C156.772049,22.789740 156.398575,24.424641 156.874298,25.751278 
	C157.646744,27.905455 158.562943,31.038700 160.180267,31.612885 
	C162.489777,32.432812 165.713882,31.844419 168.100266,30.817991 
	C169.416382,30.251909 169.966705,27.604923 170.495041,25.789194 
	C170.588425,25.468334 168.437424,23.915718 168.068451,24.142899 
	C166.735641,24.963501 165.744141,26.325565 164.571167,27.427168 
	C164.253845,27.725178 163.750885,27.825514 163.011017,28.163902 
	C163.011017,24.324293 163.011017,20.767685 163.011017,17.237431 
	C165.181274,18.853231 166.814774,20.069412 168.448288,21.285589 
	C168.989380,19.906691 169.530472,18.527792 170.912216,17.005760 
M75.392502,15.428843 
	C73.791878,10.548853 69.726219,12.575136 66.645058,12.579226 
	C63.133076,12.583887 63.952221,15.656825 63.890434,17.845284 
	C63.810974,20.659805 63.570198,23.521458 63.967117,26.281086 
	C64.274376,28.417370 65.425888,32.186024 66.251411,32.199463 
	C70.504379,32.268703 68.546532,28.497784 69.131989,26.236712 
	C69.211723,25.928787 69.380653,25.643961 69.213264,26.031551 
	C71.066170,24.951256 72.393509,24.177382 73.720840,23.403505 
	C72.247902,21.726408 70.774963,20.049309 69.353394,18.430698 
	C71.456253,17.632149 73.669731,16.791592 76.042984,16.873234 
	C76.011269,19.861322 75.548218,22.930460 76.089447,25.810894 
	C76.494965,27.969084 77.830215,31.170889 79.399269,31.613928 
	C81.914162,32.324036 85.135002,31.566296 87.712608,30.552294 
	C88.865677,30.098682 89.392960,27.563200 89.737206,25.877151 
	C89.827469,25.435059 87.742622,23.920492 87.396179,24.128733 
	C86.051392,24.937071 85.026001,26.264797 83.832466,27.344763 
	C83.516243,27.630899 83.023918,27.722425 82.278732,28.050007 
	C82.278732,24.260824 82.278732,20.771185 82.278732,17.092363 
	C84.380997,18.907757 86.068199,20.364719 87.755394,21.821682 
	C88.365791,21.422169 88.976189,21.022655 89.586594,20.623142 
	C88.839149,18.328985 88.745834,14.959676 87.181625,14.008004 
	C85.145332,12.769124 81.909782,13.152664 79.254150,13.436050 
	C78.031158,13.566559 76.959793,15.117951 75.392502,15.428843 
M105.405006,29.164814 
	C105.920631,29.441935 106.436256,29.719055 107.192230,30.637697 
	C108.399734,31.162767 109.579811,31.893929 110.834953,32.060932 
	C111.130714,32.100281 111.936310,30.268145 112.054817,29.244556 
	C112.260094,27.471561 112.111794,25.657629 112.111794,23.860868 
	C114.078033,26.134012 114.711418,28.622643 116.066200,30.622606 
	C116.802132,31.709011 118.800819,32.502697 120.162483,32.412300 
	C121.131989,32.347939 122.710228,30.631657 122.772499,29.578981 
	C123.056168,24.784086 123.022003,19.957113 122.786003,15.157215 
	C122.744431,14.311727 121.196281,13.540315 120.343872,12.734696 
	C119.559204,13.594381 118.286888,14.358094 118.094749,15.334390 
	C117.731750,17.178852 117.989876,19.145554 117.989876,21.061457 
	C116.387138,19.513697 115.955589,17.558760 114.895767,16.043158 
	C113.880219,14.590858 112.261635,12.742963 110.816238,12.659493 
	C109.595078,12.588976 108.242401,14.796126 106.252831,16.000584 
	C105.788956,16.006529 105.325073,16.012476 104.406219,15.505120 
	C102.020729,12.129718 98.740128,11.812467 95.166046,12.974316 
	C91.410202,14.195251 91.100632,17.330307 91.214897,20.630644 
	C91.254906,21.786312 91.262970,22.945297 91.227242,24.100960 
	C91.120506,27.553902 91.330551,30.844240 95.378983,32.120502 
	C99.288376,33.352936 102.530579,32.500427 105.405006,29.164814 
M33.414143,29.543486 
	C36.470055,32.923595 41.223564,33.758057 43.678516,31.058582 
	C44.683510,29.953485 45.676418,27.943220 45.341492,26.705551 
	C44.703785,24.349010 43.107586,22.251848 41.961418,20.142775 
	C42.391582,19.918442 43.206764,19.493320 44.544334,18.938126 
	C44.651485,18.631392 44.758633,18.324657 45.023415,17.253164 
	C43.866497,15.750716 42.989292,13.404202 41.498230,12.910091 
	C37.614861,11.623218 34.117748,12.645156 32.541309,17.168234 
	C28.428823,12.234999 23.297613,11.139988 19.935333,14.192071 
	C17.322834,16.563547 16.935432,28.016481 19.378630,30.650236 
	C22.242109,33.737053 27.727869,32.903481 32.218662,28.949226 
	C32.469036,28.967125 32.719410,28.985022 33.414143,29.543486 
M46.500000,38.003315 
	C37.418930,38.003315 28.337862,38.003315 19.360851,38.003315 
	C19.360851,52.238064 19.360851,65.782936 19.360851,79.328171 
	C20.178724,79.488167 20.654951,79.661407 21.131783,79.663086 
	C42.430794,79.738251 63.729877,79.840088 85.028900,79.831268 
	C90.454292,79.829025 94.646873,77.273544 97.305405,72.555000 
	C102.256294,63.767811 102.383698,54.755089 97.778885,45.834564 
	C95.052078,40.552135 90.701767,37.831062 84.442032,37.940243 
	C72.131401,38.154953 59.814381,38.003365 46.500000,38.003315 
M102.355705,79.067352 
	C103.210426,79.264671 104.064941,79.633339 104.919907,79.634399 
	C129.735458,79.665123 154.551056,79.663147 179.366623,79.645866 
	C180.489304,79.645088 181.611847,79.452721 182.805603,79.343048 
	C182.805603,65.517570 182.805603,51.940456 182.805603,38.361694 
	C155.777847,38.361694 128.989471,38.361694 101.644241,38.361694 
	C115.981255,47.644867 116.258614,69.221466 102.355705,79.067352 
M125.797775,18.720995 
	C125.804680,22.369463 125.661728,26.028557 125.919106,29.659271 
	C125.987328,30.621592 127.287094,31.496605 128.021393,32.411705 
	C128.689651,31.512489 129.672180,30.700394 129.951340,29.693323 
	C130.354462,28.239073 130.247467,26.643425 130.358124,25.108107 
	C130.782654,24.994377 131.207184,24.880648 131.631699,24.766918 
	C132.478287,26.563686 133.028870,28.609169 134.264160,30.079334 
	C135.270981,31.277584 137.029251,32.150177 138.589706,32.441177 
	C139.308441,32.575207 141.083389,31.010042 141.126312,30.152603 
	C141.382858,25.029934 141.365387,19.885735 141.184204,14.757791 
	C141.158463,14.029766 139.510284,12.638679 139.016129,12.798760 
	C138.012070,13.124032 136.822617,14.169546 136.544342,15.154142 
	C136.070770,16.829838 136.241760,18.687700 136.141922,20.469017 
	C134.788239,19.219053 134.465378,17.509567 133.478622,16.380106 
	C132.131577,14.838259 130.346451,12.773190 128.628738,12.652965 
	C125.232033,12.415224 125.894798,15.560814 125.797775,18.720995 
M46.969543,22.391167 
	C46.966286,23.887526 46.349091,25.886658 47.081276,26.780735 
	C48.878345,28.975128 51.018280,31.510782 53.536049,32.336521 
	C56.731178,33.384415 60.187122,31.727461 60.722279,28.010670 
	C61.332069,23.775558 61.076824,19.387897 60.853298,15.084418 
	C60.808582,14.223509 58.964916,12.624271 58.388363,12.800142 
	C57.272190,13.140617 55.796478,14.414435 55.661118,15.456228 
	C55.278461,18.401218 55.563171,21.426950 55.449120,24.415688 
	C55.402180,25.645731 55.007793,26.862516 54.771446,28.085331 
	C54.176208,28.029699 53.580967,27.974068 52.985725,27.918438 
	C52.985725,24.391592 52.874126,20.860334 53.013332,17.338991 
	C53.196632,12.702426 51.156639,11.722672 46.969986,13.554982 
	C46.969986,16.152718 46.969986,18.805994 46.969543,22.391167 
M146.185410,12.653198 
	C145.741959,12.869864 144.922089,13.067660 144.910141,13.305963 
	C144.616516,19.163242 144.217606,25.032270 144.445587,30.875473 
	C144.471817,31.547916 148.058395,32.461418 150.029266,32.559574 
	C151.648758,32.640221 153.320282,31.675566 154.968750,31.174213 
	C154.352020,30.084835 153.983597,28.624472 153.054108,28.002413 
	C151.956100,27.267578 150.373260,27.257166 148.433517,26.798664 
	C150.773514,24.881517 152.274948,23.651415 153.776367,22.421309 
	C152.285873,21.219225 150.795380,20.017141 148.497620,18.163992 
	C150.230850,17.748667 151.555862,17.662989 152.636032,17.104116 
	C153.625320,16.592278 154.350174,15.569344 155.191544,14.771614 
	C154.286041,13.989132 153.478775,12.745786 152.453110,12.527195 
	C150.713974,12.156552 148.837021,12.432536 146.185410,12.653198 
z"/>
<path fill="#ED7926" opacity="1.000000" stroke="none" 
	d="
M47.000000,38.003319 
	C59.814381,38.003365 72.131401,38.154953 84.442032,37.940243 
	C90.701767,37.831062 95.052078,40.552135 97.778885,45.834564 
	C102.383698,54.755089 102.256294,63.767811 97.305405,72.555000 
	C94.646873,77.273544 90.454292,79.829025 85.028900,79.831268 
	C63.729877,79.840088 42.430794,79.738251 21.131783,79.663086 
	C20.654951,79.661407 20.178724,79.488167 19.360851,79.328171 
	C19.360851,65.782936 19.360851,52.238064 19.360851,38.003315 
	C28.337862,38.003315 37.418930,38.003315 47.000000,38.003319 
z"/>
<path fill="#102346" opacity="1.000000" stroke="none" 
	d="
M102.536217,78.827194 
	C116.258614,69.221466 115.981255,47.644867 101.644241,38.361694 
	C128.989471,38.361694 155.777847,38.361694 182.805603,38.361694 
	C182.805603,51.940456 182.805603,65.517570 182.805603,79.343048 
	C181.611847,79.452721 180.489304,79.645088 179.366623,79.645866 
	C154.551056,79.663147 129.735458,79.665123 104.919907,79.634399 
	C104.064941,79.633339 103.210426,79.264671 102.536217,78.827194 
z"/>
<path fill="#203252" opacity="1.000000" stroke="none" 
	d="
M31.478296,28.811666 
	C27.727869,32.903481 22.242109,33.737053 19.378630,30.650236 
	C16.935432,28.016481 17.322834,16.563547 19.935333,14.192071 
	C23.297613,11.139988 28.428823,12.234999 32.541309,17.168234 
	C34.117748,12.645156 37.614861,11.623218 41.498230,12.910091 
	C42.989292,13.404202 43.866497,15.750716 44.747250,17.759266 
	C44.236198,18.485321 44.086487,18.752932 44.021950,19.068199 
	C43.206764,19.493320 42.391582,19.918442 41.961418,20.142775 
	C43.107586,22.251848 44.703785,24.349010 45.341492,26.705551 
	C45.676418,27.943220 44.683510,29.953485 43.678516,31.058582 
	C41.223564,33.758057 36.470055,32.923595 33.214684,28.883608 
	C34.380257,26.937088 35.745289,25.650444 37.650013,23.855103 
	C36.446339,23.020107 33.463917,19.911921 32.484646,20.449913 
	C27.999428,22.914019 26.647617,19.704937 24.182137,15.521946 
	C24.182137,20.808445 24.182137,24.390629 24.182137,27.493734 
	C26.430368,26.278818 28.383291,25.223480 30.336216,24.168144 
	C30.716909,25.715984 31.097603,27.263826 31.478296,28.811666 
M38.483135,19.586634 
	C38.483135,19.586634 38.418125,19.477184 38.483135,19.586634 
z"/>
<path fill="#EE8031" opacity="1.000000" stroke="none" 
	d="
M125.798195,18.258793 
	C125.894798,15.560814 125.232033,12.415224 128.628738,12.652965 
	C130.346451,12.773190 132.131577,14.838259 133.478622,16.380106 
	C134.465378,17.509567 134.788239,19.219053 136.141922,20.469017 
	C136.241760,18.687700 136.070770,16.829838 136.544342,15.154142 
	C136.822617,14.169546 138.012070,13.124032 139.016129,12.798760 
	C139.510284,12.638679 141.158463,14.029766 141.184204,14.757791 
	C141.365387,19.885735 141.382858,25.029934 141.126312,30.152603 
	C141.083389,31.010042 139.308441,32.575207 138.589706,32.441177 
	C137.029251,32.150177 135.270981,31.277584 134.264160,30.079334 
	C133.028870,28.609169 132.478287,26.563686 131.631699,24.766918 
	C131.207184,24.880648 130.782654,24.994377 130.358124,25.108107 
	C130.247467,26.643425 130.354462,28.239073 129.951340,29.693323 
	C129.672180,30.700394 128.689651,31.512489 128.021393,32.411705 
	C127.287094,31.496605 125.987328,30.621592 125.919106,29.659271 
	C125.661728,26.028557 125.804680,22.369463 125.798195,18.258793 
z"/>
<path fill="#EE8335" opacity="1.000000" stroke="none" 
	d="
M106.947937,15.995207 
	C108.242401,14.796126 109.595078,12.588976 110.816238,12.659493 
	C112.261635,12.742963 113.880219,14.590858 114.895767,16.043158 
	C115.955589,17.558760 116.387138,19.513697 117.989876,21.061457 
	C117.989876,19.145554 117.731750,17.178852 118.094749,15.334390 
	C118.286888,14.358094 119.559204,13.594381 120.343872,12.734695 
	C121.196281,13.540315 122.744431,14.311727 122.786003,15.157215 
	C123.022003,19.957113 123.056168,24.784086 122.772499,29.578981 
	C122.710228,30.631657 121.131989,32.347939 120.162483,32.412300 
	C118.800819,32.502697 116.802132,31.709011 116.066200,30.622606 
	C114.711418,28.622643 114.078033,26.134012 112.111794,23.860868 
	C112.111794,25.657629 112.260094,27.471561 112.054817,29.244556 
	C111.936310,30.268145 111.130714,32.100281 110.834953,32.060932 
	C109.579811,31.893929 108.399734,31.162767 107.156738,29.858940 
	C107.063469,24.718527 107.005699,20.356867 106.947937,15.995207 
z"/>
<path fill="#EF863B" opacity="1.000000" stroke="none" 
	d="
M104.857178,28.952938 
	C102.530579,32.500427 99.288376,33.352936 95.378983,32.120502 
	C91.330551,30.844240 91.120506,27.553902 91.227242,24.100960 
	C91.262970,22.945297 91.254906,21.786312 91.214897,20.630644 
	C91.100632,17.330307 91.410202,14.195251 95.166046,12.974316 
	C98.740128,11.812467 102.020729,12.129718 104.642403,16.223381 
	C104.871452,20.945406 104.864319,24.949173 104.857178,28.952938 
z"/>
<path fill="#182A4B" opacity="1.000000" stroke="none" 
	d="
M46.969765,21.925219 
	C46.969986,18.805994 46.969986,16.152718 46.969986,13.554982 
	C51.156639,11.722672 53.196632,12.702426 53.013332,17.338991 
	C52.874126,20.860334 52.985725,24.391592 52.985725,27.918438 
	C53.580967,27.974068 54.176208,28.029699 54.771446,28.085331 
	C55.007793,26.862516 55.402180,25.645731 55.449120,24.415688 
	C55.563171,21.426950 55.278461,18.401218 55.661118,15.456228 
	C55.796478,14.414435 57.272190,13.140617 58.388363,12.800142 
	C58.964916,12.624271 60.808582,14.223509 60.853298,15.084418 
	C61.076824,19.387897 61.332069,23.775558 60.722279,28.010670 
	C60.187122,31.727461 56.731178,33.384415 53.536049,32.336521 
	C51.018280,31.510782 48.878345,28.975128 47.081276,26.780735 
	C46.349091,25.886658 46.966286,23.887526 46.969765,21.925219 
z"/>
<path fill="#EE8133" opacity="1.000000" stroke="none" 
	d="
M75.819672,16.025066 
	C76.959793,15.117951 78.031158,13.566559 79.254150,13.436050 
	C81.909782,13.152664 85.145332,12.769124 87.181625,14.008004 
	C88.745834,14.959676 88.839149,18.328985 89.586594,20.623142 
	C88.976189,21.022655 88.365791,21.422169 87.755394,21.821682 
	C86.068199,20.364719 84.380997,18.907757 82.278732,17.092363 
	C82.278732,20.771185 82.278732,24.260824 82.278732,28.050007 
	C83.023918,27.722425 83.516243,27.630899 83.832466,27.344763 
	C85.026001,26.264797 86.051392,24.937071 87.396179,24.128733 
	C87.742622,23.920492 89.827469,25.435059 89.737206,25.877151 
	C89.392960,27.563200 88.865677,30.098682 87.712608,30.552294 
	C85.135002,31.566296 81.914162,32.324036 79.399269,31.613928 
	C77.830215,31.170889 76.494965,27.969084 76.089447,25.810894 
	C75.548218,22.930460 76.011269,19.861322 75.975662,16.454975 
	C75.908348,16.036716 75.819672,16.025066 75.819672,16.025066 
z"/>
<path fill="#EE7E2E" opacity="1.000000" stroke="none" 
	d="
M170.071564,17.148895 
	C169.530472,18.527792 168.989380,19.906691 168.448288,21.285591 
	C166.814774,20.069412 165.181274,18.853231 163.011017,17.237431 
	C163.011017,20.767685 163.011017,24.324293 163.011017,28.163902 
	C163.750885,27.825514 164.253845,27.725178 164.571167,27.427168 
	C165.744141,26.325565 166.735641,24.963501 168.068451,24.142899 
	C168.437424,23.915718 170.588425,25.468334 170.495041,25.789194 
	C169.966705,27.604923 169.416382,30.251909 168.100266,30.817991 
	C165.713882,31.844419 162.489777,32.432812 160.180267,31.612885 
	C158.562943,31.038700 157.646744,27.905455 156.874298,25.751278 
	C156.398575,24.424641 156.772049,22.789740 156.781906,21.293358 
	C156.835251,13.186990 160.663940,10.745648 168.719177,14.397697 
	C169.403152,15.646673 169.737350,16.397783 170.071564,17.148895 
z"/>
<path fill="#EE8133" opacity="1.000000" stroke="none" 
	d="
M146.601715,12.544960 
	C148.837021,12.432536 150.713974,12.156552 152.453110,12.527195 
	C153.478775,12.745786 154.286041,13.989132 155.191544,14.771614 
	C154.350174,15.569344 153.625320,16.592278 152.636032,17.104116 
	C151.555862,17.662989 150.230850,17.748667 148.497620,18.163992 
	C150.795380,20.017141 152.285873,21.219225 153.776367,22.421310 
	C152.274948,23.651415 150.773514,24.881517 148.433517,26.798664 
	C150.373260,27.257166 151.956100,27.267578 153.054108,28.002413 
	C153.983597,28.624472 154.352020,30.084835 154.968750,31.174215 
	C153.320282,31.675566 151.648758,32.640221 150.029266,32.559574 
	C148.058395,32.461418 144.471817,31.547916 144.445587,30.875473 
	C144.217606,25.032270 144.616516,19.163242 144.910141,13.305963 
	C144.922089,13.067660 145.741959,12.869864 146.601715,12.544960 
z"/>
<path fill="#203252" opacity="1.000000" stroke="none" 
	d="
M75.895782,15.993876 
	C73.669731,16.791592 71.456253,17.632149 69.353394,18.430698 
	C70.774963,20.049309 72.247902,21.726408 73.720840,23.403507 
	C72.393509,24.177382 71.066170,24.951256 69.213264,26.031551 
	C69.380653,25.643961 69.211723,25.928787 69.131989,26.236712 
	C68.546532,28.497784 70.504379,32.268703 66.251411,32.199463 
	C65.425888,32.186024 64.274376,28.417370 63.967117,26.281086 
	C63.570198,23.521458 63.810974,20.659805 63.890434,17.845284 
	C63.952221,15.656825 63.133076,12.583887 66.645058,12.579226 
	C69.726219,12.575136 73.791878,10.548853 75.606087,15.726954 
	C75.819672,16.025066 75.908348,16.036716 75.895782,15.993876 
z"/>
<path fill="#EE8235" opacity="1.000000" stroke="none" 
	d="
M170.491882,17.077328 
	C169.737350,16.397783 169.403152,15.646673 169.029739,14.589014 
	C173.155258,13.644686 177.306503,12.857841 181.494659,12.479674 
	C182.474640,12.391189 183.579651,13.687384 184.627136,14.346510 
	C183.930847,15.276843 183.206268,16.187609 182.545517,17.142523 
	C181.740677,18.305672 180.467056,19.444839 180.319946,20.702431 
	C179.975510,23.647074 180.362991,26.674387 180.065506,29.629097 
	C179.964294,30.634277 178.699707,31.522327 177.966721,32.463898 
	C177.004608,31.557163 175.360703,30.749487 175.211807,29.724602 
	C174.810593,26.963209 174.831619,24.089558 175.086212,21.297035 
	C175.385880,18.010250 174.078140,16.711592 170.491882,17.077328 
z"/>
<path fill="#EEEFF2" opacity="1.000000" stroke="none" 
	d="
M31.848480,28.880447 
	C31.097603,27.263826 30.716909,25.715984 30.336216,24.168144 
	C28.383291,25.223480 26.430368,26.278818 24.182137,27.493734 
	C24.182137,24.390629 24.182137,20.808445 24.182137,15.521946 
	C26.647617,19.704937 27.999428,22.914019 32.484646,20.449913 
	C33.463917,19.911921 36.446339,23.020107 37.650013,23.855103 
	C35.745289,25.650444 34.380257,26.937088 32.992504,28.613323 
	C32.719410,28.985022 32.469036,28.967125 31.848480,28.880447 
z"/>
<path fill="#FEF4EE" opacity="1.000000" stroke="none" 
	d="
M105.131088,29.058876 
	C104.864319,24.949173 104.871452,20.945406 104.869888,16.480032 
	C105.325073,16.012476 105.788956,16.006529 106.600388,15.997896 
	C107.005699,20.356867 107.063469,24.718527 107.036560,29.538181 
	C106.436256,29.719055 105.920631,29.441935 105.131088,29.058876 
z"/>
<path fill="#1D2F50" opacity="1.000000" stroke="none" 
	d="
M44.283142,19.003162 
	C44.086487,18.752932 44.236198,18.485321 44.668434,18.141647 
	C44.758633,18.324657 44.651485,18.631392 44.283142,19.003162 
z"/>
<path fill="#1D2F50" opacity="1.000000" stroke="none" 
	d="
M38.450630,19.531910 
	C38.418125,19.477184 38.483135,19.586634 38.450630,19.531910 
z"/>
</svg>