<svg version="1.1" id="Layer_1" xmlns="http://www.w3.org/2000/svg" xmlns:xlink="http://www.w3.org/1999/xlink" x="0px" y="0px"
	 width="100%" viewBox="0 0 228 136" enable-background="new 0 0 228 136" xml:space="preserve">
<path fill="#FFFEFD" opacity="1.000000" stroke="none" 
	d="
M145.000000,137.000000 
	C96.699539,137.000000 48.899075,137.000000 1.049305,137.000000 
	C1.049305,91.730736 1.049305,46.461403 1.049305,1.096034 
	C76.883644,1.096034 152.767456,1.096034 228.825623,1.096034 
	C228.825623,46.332794 228.825623,91.666336 228.825623,137.000000 
	C201.128372,137.000000 173.314178,137.000000 145.000000,137.000000 
M38.984932,104.642159 
	C39.298054,104.802315 39.611172,104.962471 39.932388,105.001999 
	C39.932388,105.001999 39.889935,105.115295 40.142410,105.703819 
	C41.360928,106.548172 42.579441,107.392532 44.168652,108.782677 
	C46.055454,109.920570 47.942257,111.058456 50.133507,112.690575 
	C50.761166,113.084915 51.388824,113.479256 52.626766,114.237206 
	C69.162094,123.222458 86.793228,128.330566 106.373817,129.676468 
	C115.709923,129.522278 125.046021,129.368088 135.243286,129.285080 
	C148.362488,128.249817 160.892120,125.221512 173.201462,120.285828 
	C185.864670,115.208252 197.248093,108.576653 206.668808,98.792137 
	C224.685776,80.079437 224.999756,56.842381 207.173416,37.926289 
	C202.323929,32.780365 196.554153,28.235645 190.528839,24.511896 
	C169.227310,11.347150 145.478073,6.735388 120.829918,6.473167 
	C98.879944,6.239650 77.640961,10.198239 57.814667,20.025770 
	C42.889004,27.424150 29.615753,36.728703 22.592340,53.494015 
	C22.414936,54.337547 22.237532,55.181076 21.829832,56.289364 
	C21.829832,56.289364 21.864281,56.638573 21.335060,57.223366 
	C19.025381,65.699326 18.521858,74.073792 22.670843,82.268166 
	C22.670843,82.268166 22.688484,82.374870 22.697510,83.037514 
	C23.385063,84.426567 24.072618,85.815613 24.898811,87.854836 
	C25.856375,89.303200 26.813936,90.751556 27.958874,92.814194 
	C28.927116,93.918312 29.895359,95.022438 30.994429,96.047203 
	C30.994429,96.047203 30.848763,96.093918 30.958803,96.693588 
	C31.660919,97.380051 32.363037,98.066513 33.333344,99.366371 
	C34.649281,100.552704 35.965218,101.739037 37.468090,103.442993 
	C37.940418,103.693817 38.412746,103.944633 38.922031,104.104858 
	C38.922031,104.104858 38.825787,104.122452 38.984932,104.642159 
z"/>
<path fill="#CA763D" opacity="1.000000" stroke="none" 
	d="
M105.618309,129.214249 
	C86.793228,128.330566 69.162094,123.222458 52.329029,113.691757 
	C52.118839,112.670227 52.206390,112.194130 52.640785,111.790817 
	C55.374325,113.036720 57.721512,114.299667 60.153660,115.369469 
	C96.096375,131.179123 132.720993,132.008774 169.655258,119.573013 
	C185.320099,114.298660 199.337601,106.026779 209.408401,92.320328 
	C220.099274,77.769958 220.509109,60.708241 210.388855,45.776207 
	C203.592392,35.748276 194.394623,28.316505 183.579697,23.148779 
	C145.191513,4.805632 105.931679,3.964892 66.332840,18.659105 
	C47.848557,25.518192 32.665279,36.747147 24.152470,55.066719 
	C23.724874,54.149887 23.374601,53.573891 23.024330,52.997898 
	C29.615753,36.728703 42.889004,27.424150 57.814667,20.025770 
	C77.640961,10.198239 98.879944,6.239650 120.829918,6.473167 
	C145.478073,6.735388 169.227310,11.347150 190.528839,24.511896 
	C196.554153,28.235645 202.323929,32.780365 207.173416,37.926289 
	C224.999756,56.842381 224.685776,80.079437 206.668808,98.792137 
	C197.248093,108.576653 185.864670,115.208252 173.201462,120.285828 
	C160.892120,125.221512 148.362488,128.249817 134.316055,129.160461 
	C124.131989,129.095322 114.875145,129.154785 105.618309,129.214249 
z"/>
<path fill="#CA763D" opacity="1.000000" stroke="none" 
	d="
M21.864281,56.638573 
	C21.864281,56.638573 21.829832,56.289364 22.268217,56.150558 
	C23.137552,56.000355 23.568502,55.988956 24.000355,56.392651 
	C21.468554,65.104988 22.108305,73.355545 23.942179,81.771248 
	C23.241823,82.098434 22.965155,82.236656 22.688484,82.374870 
	C22.688484,82.374870 22.670843,82.268166 22.788948,81.812286 
	C20.121758,73.219971 21.093510,64.925034 21.864281,56.638573 
z"/>
<path fill="#D48046" opacity="1.000000" stroke="none" 
	d="
M21.599670,56.930969 
	C21.093510,64.925034 20.121758,73.219971 22.822327,81.769745 
	C18.521858,74.073792 19.025381,65.699326 21.599670,56.930969 
z"/>
<path fill="#CA763D" opacity="1.000000" stroke="none" 
	d="
M37.281158,102.925362 
	C35.965218,101.739037 34.649281,100.552704 33.151730,98.752762 
	C32.262997,97.457405 31.555880,96.775665 30.848763,96.093918 
	C30.848763,96.093918 30.994429,96.047203 30.990387,95.707413 
	C31.069134,94.863434 31.151922,94.359245 31.522959,94.012909 
	C35.253685,97.708015 38.696163,101.245255 41.766251,104.851814 
	C40.892548,104.985855 40.391243,105.050575 39.889935,105.115295 
	C39.889935,105.115295 39.932388,105.001999 39.838673,104.808273 
	C39.438568,104.450523 39.132175,104.286484 38.825787,104.122452 
	C38.825787,104.122452 38.922031,104.104858 38.827217,103.878113 
	C38.248653,103.409370 37.764904,103.167366 37.281158,102.925362 
z"/>
<path fill="#F09A5E" opacity="1.000000" stroke="none" 
	d="
M105.996063,129.445358 
	C114.875145,129.154785 124.131989,129.095322 133.885468,129.124878 
	C125.046021,129.368088 115.709923,129.522278 105.996063,129.445358 
z"/>
<path fill="#D48046" opacity="1.000000" stroke="none" 
	d="
M49.829056,112.196342 
	C47.942257,111.058456 46.055454,109.920570 44.053616,108.424164 
	C43.938580,108.065659 44.077652,107.893669 44.419628,107.923584 
	C45.219151,107.922447 45.676697,107.891396 46.087711,107.915665 
	C46.041180,107.970985 46.092075,107.835663 46.190746,108.160645 
	C47.237785,108.945969 48.186153,109.406319 49.069725,109.903107 
	C49.004936,109.939552 49.106117,109.830612 49.161236,110.113960 
	C49.505623,110.893440 49.794895,111.389565 50.021538,111.964302 
	C49.958912,112.042908 49.829060,112.196342 49.829056,112.196342 
z"/>
<path fill="#D48046" opacity="1.000000" stroke="none" 
	d="
M27.771500,92.199921 
	C26.813936,90.751556 25.856375,89.303200 24.917027,87.458031 
	C24.935240,87.061226 25.112179,86.921310 25.385666,87.105042 
	C26.474392,88.832787 27.289631,90.376785 28.021269,91.990265 
	C27.937668,92.059738 27.771500,92.199921 27.771500,92.199921 
z"/>
<path fill="#D48046" opacity="1.000000" stroke="none" 
	d="
M22.692997,82.706192 
	C22.965155,82.236656 23.241823,82.098434 23.922207,81.836090 
	C24.325920,81.711975 24.217876,81.788528 24.225565,82.043037 
	C24.461834,82.536179 24.690416,82.774811 25.024715,83.149857 
	C25.130434,83.286263 25.135357,83.631401 25.093166,84.043442 
	C25.071375,85.277428 25.091778,86.099373 25.112179,86.921310 
	C25.112179,86.921310 24.935240,87.061226 24.847706,87.132950 
	C24.072618,85.815613 23.385063,84.426567 22.692997,82.706192 
z"/>
<path fill="#D48046" opacity="1.000000" stroke="none" 
	d="
M31.234711,93.855049 
	C31.151922,94.359245 31.069134,94.863434 30.924973,95.747093 
	C29.895359,95.022438 28.927116,93.918312 27.865187,92.507057 
	C27.771500,92.199921 27.937668,92.059738 28.280910,92.152596 
	C29.470907,92.796898 30.317661,93.348343 31.180277,93.886292 
	C31.196138,93.872787 31.234713,93.855049 31.234711,93.855049 
z"/>
<path fill="#D48046" opacity="1.000000" stroke="none" 
	d="
M40.016174,105.409561 
	C40.391243,105.050575 40.892548,104.985855 41.757687,104.869568 
	C42.121517,104.818008 42.094158,104.842003 42.170216,105.141479 
	C42.856735,106.258530 43.467194,107.076096 44.077652,107.893669 
	C44.077652,107.893669 43.938580,108.065659 43.868267,108.151276 
	C42.579441,107.392532 41.360928,106.548172 40.016174,105.409561 
z"/>
<path fill="#D48046" opacity="1.000000" stroke="none" 
	d="
M23.999453,55.977562 
	C23.568502,55.988956 23.137552,56.000355 22.383366,56.018181 
	C22.237532,55.181076 22.414936,54.337547 22.808334,53.245956 
	C23.374601,53.573891 23.724874,54.149887 24.140957,55.227165 
	C24.206766,55.728447 23.999453,55.977562 23.999453,55.977562 
z"/>
<path fill="#D48046" opacity="1.000000" stroke="none" 
	d="
M30.903782,96.393753 
	C31.555880,96.775665 32.262997,97.457405 33.017632,98.446060 
	C32.363037,98.066513 31.660919,97.380051 30.903782,96.393753 
z"/>
<path fill="#D48046" opacity="1.000000" stroke="none" 
	d="
M52.293938,111.718040 
	C52.206390,112.194130 52.118839,112.670227 52.023888,113.509956 
	C51.388824,113.479256 50.761166,113.084915 49.981285,112.443459 
	C49.829060,112.196342 49.958912,112.042908 50.370499,111.993187 
	C51.247063,111.892441 51.712048,111.841408 52.201580,111.764740 
	C52.226131,111.739105 52.293938,111.718040 52.293938,111.718040 
z"/>
<path fill="#D48046" opacity="1.000000" stroke="none" 
	d="
M37.374626,103.184174 
	C37.764904,103.167366 38.248653,103.409370 38.808739,103.923416 
	C38.412746,103.944633 37.940418,103.693817 37.374626,103.184174 
z"/>
<path fill="#D48046" opacity="1.000000" stroke="none" 
	d="
M38.905357,104.382309 
	C39.132175,104.286484 39.438568,104.450523 39.834625,104.868591 
	C39.611172,104.962471 39.298054,104.802315 38.905357,104.382309 
z"/>
<path fill="#0F2343" opacity="1.000000" stroke="none" 
	d="
M24.000355,56.392654 
	C23.999453,55.977562 24.206766,55.728447 24.218281,55.568001 
	C32.665279,36.747147 47.848557,25.518192 66.332840,18.659105 
	C105.931679,3.964892 145.191513,4.805632 183.579697,23.148779 
	C194.394623,28.316505 203.592392,35.748276 210.388855,45.776207 
	C220.509109,60.708241 220.099274,77.769958 209.408401,92.320328 
	C199.337601,106.026779 185.320099,114.298660 169.655258,119.573013 
	C132.720993,132.008774 96.096375,131.179123 60.153660,115.369469 
	C57.721512,114.299667 55.374325,113.036720 52.640781,111.790817 
	C52.293938,111.718040 52.226131,111.739105 52.053108,111.487587 
	C50.955429,110.767586 50.030773,110.299103 49.106117,109.830612 
	C49.106117,109.830612 49.004936,109.939552 48.928253,109.619446 
	C47.931740,108.811440 47.011909,108.323547 46.092075,107.835663 
	C46.092075,107.835663 46.041180,107.970985 45.948387,107.624153 
	C44.601784,106.465546 43.347973,105.653770 42.094162,104.841995 
	C42.094158,104.842003 42.121517,104.818008 42.130081,104.800247 
	C38.696163,101.245255 35.253685,97.708015 31.522961,94.012909 
	C31.234713,93.855049 31.196138,93.872787 31.113670,93.542404 
	C29.065922,90.018478 27.100639,86.824944 25.135357,83.631401 
	C25.135357,83.631401 25.130434,83.286263 25.024902,82.885735 
	C24.685541,82.252983 24.451708,82.020752 24.217876,81.788528 
	C24.217876,81.788528 24.325920,81.711975 24.345892,81.647133 
	C22.108305,73.355545 21.468554,65.104988 24.000355,56.392654 
M120.989853,66.843742 
	C120.691544,66.801605 120.393242,66.759476 120.245712,66.022736 
	C119.084129,63.704292 118.431595,60.102459 116.633331,59.389198 
	C114.336678,58.478245 109.932648,58.921463 108.582870,60.554638 
	C106.775383,62.741642 106.765480,66.603996 106.464371,69.792389 
	C106.169350,72.916183 106.036430,76.469543 109.776093,77.853592 
	C113.690933,79.302475 117.277634,78.496010 120.489548,75.167656 
	C121.005821,75.442741 121.522087,75.717827 122.564011,76.444176 
	C127.539085,79.660271 130.027298,79.412529 133.853302,75.101257 
	C136.669586,79.377518 137.916656,79.528297 141.382401,76.132973 
	C143.233124,77.927582 144.899918,80.380547 147.949936,76.340965 
	C148.560822,76.268509 149.572113,75.933334 149.722733,76.162872 
	C152.096237,79.780380 154.218216,79.132561 156.294281,75.174248 
	C159.524078,81.330788 161.696213,77.621201 164.240448,75.659164 
	C167.353729,78.409210 171.015320,79.648636 174.645401,77.451080 
	C175.802048,76.750877 175.581696,73.776039 176.754608,71.972672 
	C177.175339,72.374825 177.829193,72.704254 177.980835,73.190353 
	C179.524872,78.139763 184.124985,80.199753 188.268692,77.502708 
	C189.365692,76.788681 190.384354,75.223930 190.511795,73.956512 
	C190.638580,72.695930 189.599045,71.318062 189.070953,69.991623 
	C188.788086,70.622704 188.505203,71.253777 188.222336,71.884857 
	C189.089951,70.397186 189.957550,68.909515 191.744339,67.334038 
	C192.544998,68.568535 193.557297,69.721085 194.077393,71.064217 
	C194.472626,72.084961 193.876862,73.547173 194.373398,74.457756 
	C195.164566,75.908615 196.280502,77.645851 197.668823,78.163826 
	C198.820251,78.593422 200.562546,77.439384 202.043091,76.986916 
	C201.354034,75.747940 200.236191,74.559380 200.083069,73.257378 
	C199.886047,71.581955 199.823486,69.009369 200.813751,68.224327 
	C205.778610,64.288399 196.850800,63.675659 199.098694,60.521561 
	C199.129639,60.478165 197.625275,58.923195 196.719910,58.770390 
	C196.070297,58.660751 194.933777,59.550190 194.519333,60.280430 
	C193.180237,62.639999 192.074417,65.131966 190.307022,67.073708 
	C185.935013,62.467140 183.301544,62.651367 176.785004,67.315338 
	C172.547836,62.369888 167.622849,62.622868 163.238007,68.054329 
	C161.429443,65.428291 159.753479,62.853409 155.731598,64.414108 
	C152.991318,65.477478 150.020096,65.945618 146.947235,65.956490 
	C145.519638,65.315498 144.138977,64.291656 142.655106,64.109810 
	C139.096115,63.673676 135.753922,64.381111 133.164047,66.668137 
	C129.089676,62.668095 126.188065,62.745052 120.989853,66.843742 
M50.909985,76.003807 
	C51.658573,75.977592 52.407166,75.951378 53.690834,76.364182 
	C57.715897,79.338722 61.897961,79.332207 64.185425,76.347839 
	C66.490662,73.340286 65.547020,70.080620 62.066845,67.012451 
	C63.142200,65.347694 65.186600,63.453556 64.815842,62.467651 
	C64.215630,60.871559 62.208775,59.245789 60.475811,58.748985 
	C56.705864,57.668217 53.829060,59.486214 51.298454,62.696262 
	C49.550434,58.336250 46.031021,58.087082 42.206078,58.960022 
	C38.340549,59.842224 37.652607,62.855877 37.742489,66.267189 
	C37.777489,67.595642 37.453999,69.010170 37.807396,70.237617 
	C38.538807,72.778015 39.194405,76.986717 40.636856,77.329506 
	C43.544380,78.020470 46.957020,76.585922 50.909985,76.003807 
M73.024750,68.422722 
	C73.011330,66.090775 73.290230,63.702702 72.857994,61.451153 
	C72.649925,60.367310 71.100830,59.540905 70.158997,58.597923 
	C69.227364,59.558514 67.588852,60.453129 67.491920,61.491631 
	C67.152794,65.124969 67.181618,68.816826 67.379082,72.469780 
	C67.609940,76.740372 70.288437,78.676277 74.373299,78.596153 
	C78.465775,78.515869 80.959038,76.495132 81.061035,72.178780 
	C81.127907,69.348396 81.388298,66.468338 80.969589,63.700127 
	C80.698532,61.908112 79.531906,58.957405 78.465157,58.817066 
	C74.946716,58.354187 75.500557,61.492336 75.449059,63.725620 
	C75.370735,67.122574 75.428566,70.522675 75.428566,73.921432 
	C74.739021,73.921501 74.049477,73.921577 73.359940,73.921646 
	C73.248222,72.400398 73.136505,70.879150 73.024750,68.422722 
M83.636566,73.868805 
	C84.463364,75.413086 85.290154,76.957375 86.116951,78.501656 
	C87.426186,76.403503 88.735413,74.305351 90.044647,72.207199 
	C89.780212,72.083305 89.515778,71.959419 89.251343,71.835526 
	C90.658409,70.947365 92.065483,70.059196 93.472557,69.171028 
	C92.040543,67.605995 90.608528,66.040970 88.906303,64.180634 
	C90.332100,63.913498 91.959610,64.017639 93.009041,63.289093 
	C93.933197,62.647511 94.211151,61.075100 94.774467,59.913746 
	C91.937149,59.437298 89.088341,58.600880 86.269089,58.690819 
	C85.353058,58.720043 83.911568,61.107014 83.759781,62.527687 
	C83.390617,65.982872 83.636703,69.503807 83.636566,73.868805 
z"/>
<path fill="#CA763D" opacity="1.000000" stroke="none" 
	d="
M42.170219,105.141479 
	C43.347973,105.653770 44.601784,106.465546 45.994919,107.568832 
	C45.676697,107.891396 45.219151,107.922447 44.419628,107.923584 
	C43.467194,107.076096 42.856735,106.258530 42.170219,105.141479 
z"/>
<path fill="#CA763D" opacity="1.000000" stroke="none" 
	d="
M46.190746,108.160645 
	C47.011909,108.323547 47.931740,108.811440 48.993042,109.583000 
	C48.186153,109.406319 47.237785,108.945969 46.190746,108.160645 
z"/>
<path fill="#CA763D" opacity="1.000000" stroke="none" 
	d="
M49.161236,110.113960 
	C50.030773,110.299103 50.955429,110.767586 52.028557,111.513222 
	C51.712048,111.841408 51.247063,111.892441 50.433121,111.914581 
	C49.794895,111.389565 49.505623,110.893440 49.161236,110.113960 
z"/>
<path fill="#CA763D" opacity="1.000000" stroke="none" 
	d="
M25.093166,84.043442 
	C27.100639,86.824944 29.065922,90.018478 31.097809,93.555908 
	C30.317661,93.348343 29.470907,92.796898 28.364511,92.083122 
	C27.289631,90.376785 26.474392,88.832787 25.385666,87.105042 
	C25.091778,86.099373 25.071375,85.277428 25.093166,84.043442 
z"/>
<path fill="#CA763D" opacity="1.000000" stroke="none" 
	d="
M24.225565,82.043037 
	C24.451708,82.020752 24.685541,82.252983 24.919186,82.749329 
	C24.690416,82.774811 24.461834,82.536179 24.225565,82.043037 
z"/>
<path fill="#E9EBEE" opacity="1.000000" stroke="none" 
	d="
M73.024765,68.890312 
	C73.136505,70.879150 73.248222,72.400398 73.359940,73.921646 
	C74.049477,73.921577 74.739021,73.921501 75.428566,73.921432 
	C75.428566,70.522675 75.370735,67.122574 75.449059,63.725620 
	C75.500557,61.492336 74.946716,58.354187 78.465157,58.817066 
	C79.531906,58.957405 80.698532,61.908112 80.969589,63.700127 
	C81.388298,66.468338 81.127907,69.348396 81.061035,72.178780 
	C80.959038,76.495132 78.465775,78.515869 74.373299,78.596153 
	C70.288437,78.676277 67.609940,76.740372 67.379082,72.469780 
	C67.181618,68.816826 67.152794,65.124969 67.491920,61.491631 
	C67.588852,60.453129 69.227364,59.558514 70.158997,58.597923 
	C71.100830,59.540905 72.649925,60.367310 72.857994,61.451153 
	C73.290230,63.702702 73.011330,66.090775 73.024765,68.890312 
z"/>
<path fill="#F0F1F3" opacity="1.000000" stroke="none" 
	d="
M51.966896,62.884495 
	C53.829060,59.486214 56.705864,57.668217 60.475811,58.748985 
	C62.208775,59.245789 64.215630,60.871559 64.815842,62.467651 
	C65.186600,63.453556 63.142200,65.347694 62.066845,67.012451 
	C65.547020,70.080620 66.490662,73.340286 64.185425,76.347839 
	C61.897961,79.332207 57.715897,79.338722 53.395447,75.736626 
	C51.844437,70.768684 55.164062,71.086205 58.143658,69.982582 
	C55.868599,68.520058 53.593540,67.057526 51.303772,65.242447 
	C51.515015,64.221436 51.740955,63.552963 51.966896,62.884495 
z"/>
<path fill="#DDE0E5" opacity="1.000000" stroke="none" 
	d="
M163.996902,75.008919 
	C161.696213,77.621201 159.524078,81.330788 156.294281,75.174248 
	C154.218216,79.132561 152.096237,79.780380 149.722733,76.162872 
	C149.572113,75.933334 148.560822,76.268509 147.559967,76.064178 
	C147.164047,72.751556 147.158096,69.715729 147.152130,66.679901 
	C150.020096,65.945618 152.991318,65.477478 155.731598,64.414108 
	C159.753479,62.853409 161.429443,65.428291 163.639252,68.452820 
	C164.025970,70.903839 164.011429,72.956383 163.996902,75.008919 
z"/>
<path fill="#F0F1F3" opacity="1.000000" stroke="none" 
	d="
M119.936600,74.970863 
	C117.277634,78.496010 113.690933,79.302475 109.776093,77.853592 
	C106.036430,76.469543 106.169350,72.916183 106.464371,69.792389 
	C106.765480,66.603996 106.775383,62.741642 108.582870,60.554638 
	C109.932648,58.921463 114.336678,58.478245 116.633331,59.389198 
	C118.431595,60.102459 119.084129,63.704292 119.816315,66.481522 
	C117.051682,65.794601 114.716438,64.648903 112.546158,63.584137 
	C112.546158,66.943352 112.546158,70.547363 112.546158,74.065765 
	C114.878609,72.612846 116.790123,71.422134 118.701645,70.231430 
	C119.113297,71.811241 119.524948,73.391052 119.936600,74.970863 
z"/>
<path fill="#F4F5F7" opacity="1.000000" stroke="none" 
	d="
M51.632675,62.790379 
	C51.740955,63.552963 51.515015,64.221436 51.211258,65.608047 
	C46.717049,69.738861 46.625648,64.283569 43.846146,62.268089 
	C43.846146,66.766785 43.846146,70.454750 43.846146,74.142723 
	C44.263390,74.220131 44.680634,74.297539 45.097878,74.374947 
	C45.560982,73.285240 45.736340,71.757477 46.559891,71.216507 
	C47.593643,70.537460 49.178436,70.464577 50.480076,70.592293 
	C50.799072,70.623589 51.147739,72.460945 51.103645,73.451088 
	C51.064842,74.322388 50.496033,75.170082 50.161285,76.028206 
	C46.957020,76.585922 43.544380,78.020470 40.636856,77.329506 
	C39.194405,76.986717 38.538807,72.778015 37.807396,70.237617 
	C37.453999,69.010170 37.777489,67.595642 37.742489,66.267189 
	C37.652607,62.855877 38.340549,59.842224 42.206078,58.960022 
	C46.031021,58.087082 49.550434,58.336250 51.632675,62.790379 
z"/>
<path fill="#E9EBEE" opacity="1.000000" stroke="none" 
	d="
M147.049683,66.318192 
	C147.158096,69.715729 147.164047,72.751556 147.271133,76.299370 
	C144.899918,80.380547 143.233124,77.927582 141.382401,76.132973 
	C137.916656,79.528297 136.669586,79.377518 133.460541,74.746216 
	C133.142639,72.046455 133.217484,69.701744 133.292328,67.357033 
	C135.753922,64.381111 139.096115,63.673676 142.655106,64.109810 
	C144.138977,64.291656 145.519638,65.315498 147.049683,66.318192 
z"/>
<path fill="#EEEFF1" opacity="1.000000" stroke="none" 
	d="
M83.635765,73.433533 
	C83.636703,69.503807 83.390617,65.982872 83.759781,62.527687 
	C83.911568,61.107014 85.353058,58.720043 86.269089,58.690819 
	C89.088341,58.600880 91.937149,59.437298 94.774467,59.913746 
	C94.211151,61.075100 93.933197,62.647511 93.009041,63.289093 
	C91.959610,64.017639 90.332100,63.913498 88.906303,64.180634 
	C90.608528,66.040970 92.040543,67.605995 93.472557,69.171028 
	C92.065483,70.059196 90.658409,70.947365 89.251343,71.835526 
	C89.515778,71.959419 89.780212,72.083305 90.044647,72.207199 
	C88.735413,74.305351 87.426186,76.403503 86.116951,78.501656 
	C85.290154,76.957375 84.463364,75.413086 83.635765,73.433533 
z"/>
<path fill="#E7E9EC" opacity="1.000000" stroke="none" 
	d="
M176.986603,68.005554 
	C183.301544,62.651367 185.935013,62.467140 190.592285,67.280800 
	C190.877533,67.487892 190.825150,67.421837 190.825150,67.421837 
	C189.957550,68.909515 189.089951,70.397186 188.222336,71.884857 
	C188.505203,71.253777 188.788086,70.622704 189.070953,69.991623 
	C189.599045,71.318062 190.638580,72.695930 190.511795,73.956512 
	C190.384354,75.223930 189.365692,76.788681 188.268692,77.502708 
	C184.124985,80.199753 179.524872,78.139763 177.980835,73.190353 
	C177.829193,72.704254 177.175339,72.374825 176.374725,71.554565 
	C176.325439,70.092827 176.656021,69.049187 176.986603,68.005554 
z"/>
<path fill="#F1F2F4" opacity="1.000000" stroke="none" 
	d="
M176.885803,67.660446 
	C176.656021,69.049187 176.325439,70.092827 175.993134,71.489243 
	C175.581696,73.776039 175.802048,76.750877 174.645401,77.451080 
	C171.015320,79.648636 167.353729,78.409210 164.118683,75.334045 
	C164.011429,72.956383 164.025970,70.903839 164.014694,68.411964 
	C167.622849,62.622868 172.547836,62.369888 176.885803,67.660446 
z"/>
<path fill="#ECEEF0" opacity="1.000000" stroke="none" 
	d="
M133.228180,67.012589 
	C133.217484,69.701744 133.142639,72.046455 133.119308,74.889626 
	C130.027298,79.412529 127.539085,79.660271 122.270088,75.767372 
	C121.945831,72.382805 121.915497,69.675041 121.885162,66.967278 
	C126.188065,62.745052 129.089676,62.668095 133.228180,67.012589 
z"/>
<path fill="#F1F2F4" opacity="1.000000" stroke="none" 
	d="
M191.284744,67.377937 
	C190.825150,67.421837 190.877533,67.487892 190.878113,67.530396 
	C192.074417,65.131966 193.180237,62.639999 194.519333,60.280430 
	C194.933777,59.550190 196.070297,58.660751 196.719910,58.770390 
	C197.625275,58.923195 199.129639,60.478165 199.098694,60.521561 
	C196.850800,63.675659 205.778610,64.288399 200.813751,68.224327 
	C199.823486,69.009369 199.886047,71.581955 200.083069,73.257378 
	C200.236191,74.559380 201.354034,75.747940 202.043091,76.986923 
	C200.562546,77.439384 198.820251,78.593422 197.668823,78.163826 
	C196.280502,77.645851 195.164566,75.908615 194.373398,74.457756 
	C193.876862,73.547173 194.472626,72.084961 194.077393,71.064217 
	C193.557297,69.721085 192.544998,68.568535 191.284744,67.377937 
z"/>
<path fill="#2E405B" opacity="1.000000" stroke="none" 
	d="
M50.535637,76.016006 
	C50.496033,75.170082 51.064842,74.322388 51.103645,73.451088 
	C51.147739,72.460945 50.799072,70.623589 50.480076,70.592293 
	C49.178436,70.464577 47.593643,70.537460 46.559891,71.216507 
	C45.736340,71.757477 45.560982,73.285240 45.097878,74.374947 
	C44.680634,74.297539 44.263390,74.220131 43.846146,74.142723 
	C43.846146,70.454750 43.846146,66.766785 43.846146,62.268089 
	C46.625648,64.283569 46.717049,69.738861 51.225960,65.960602 
	C53.593540,67.057526 55.868599,68.520058 58.143658,69.982582 
	C55.164062,71.086205 51.844437,70.768684 53.127907,75.517120 
	C52.407166,75.951378 51.658573,75.977592 50.535637,76.016006 
z"/>
<path fill="#364862" opacity="1.000000" stroke="none" 
	d="
M121.437500,66.905510 
	C121.915497,69.675041 121.945831,72.382805 122.007263,75.541748 
	C121.522087,75.717827 121.005821,75.442741 120.213074,75.069260 
	C119.524948,73.391052 119.113297,71.811241 118.701645,70.231430 
	C116.790123,71.422134 114.878609,72.612846 112.546158,74.065765 
	C112.546158,70.547363 112.546158,66.943352 112.546158,63.584137 
	C114.716438,64.648903 117.051682,65.794601 119.740936,66.828827 
	C120.393242,66.759476 120.691544,66.801605 121.437500,66.905510 
z"/>
</svg>